<svg width="16" height="16" viewBox="0 0 16 16" fill="none" xmlns="http://www.w3.org/2000/svg">
<path d="M7.99968 1.33203C4.31634 1.33203 1.33301 4.31536 1.33301 7.9987C1.33301 11.682 4.31634 14.6654 7.99968 14.6654C11.683 14.6654 14.6663 11.682 14.6663 7.9987C14.6663 4.31536 11.683 1.33203 7.99968 1.33203ZM8.66634 12.6654H7.33301V11.332H8.66634V12.6654ZM10.043 7.50203L9.44634 8.11537C8.96634 8.59537 8.66634 8.9987 8.66634 9.9987H7.33301V9.66537C7.33301 8.9287 7.63301 8.26203 8.11301 7.7787L8.94301 6.9387C9.18301 6.6987 9.33301 6.36537 9.33301 5.9987C9.33301 5.26203 8.73634 4.66536 7.99968 4.66536C7.26301 4.66536 6.66634 5.26203 6.66634 5.9987H5.33301C5.33301 4.52536 6.52634 3.33203 7.99968 3.33203C9.47301 3.33203 10.6663 4.52536 10.6663 5.9987C10.6663 6.58537 10.4297 7.11537 10.043 7.50203Z" fill="#9FA3BC"/>
</svg>
