<svg width="16" height="16" viewBox="0 0 16 16" fill="none" xmlns="http://www.w3.org/2000/svg">
<path fill-rule="evenodd" clip-rule="evenodd" d="M16 8C16 12.4183 12.4183 16 8 16C3.58172 16 0 12.4183 0 8C0 3.58172 3.58172 0 8 0C12.4183 0 16 3.58172 16 8ZM7.99998 10.6577C8.19694 10.658 8.39326 10.6353 8.58498 10.5902L9.80998 12.6802C9.23183 12.9108 8.61492 13.0287 7.99248 13.0277C5.28748 13.0277 2.96998 10.8352 2.96998 8.13016C2.96905 7.47348 3.08415 6.8218 3.30998 6.20516L5.47498 7.12516C5.40044 7.41771 5.35274 7.71645 5.33248 8.01766C5.41748 9.59516 6.60498 10.6577 7.99998 10.6577ZM5.96248 3.41516C6.60183 3.1226 7.29686 2.97166 7.99998 2.97266C10.705 2.97266 13.015 5.20516 13.015 7.92016C13.038 8.63266 12.9085 9.34184 12.635 10.0002L7.15748 7.66766L10.67 7.65266C10.545 6.37766 9.23498 5.34266 7.99998 5.34266C7.72008 5.34255 7.44212 5.38901 7.17748 5.48016L5.96248 3.41516Z" fill="#9FA3BC"/>
</svg>
