<svg width="70" height="20" viewBox="0 0 70 22" fill="none" xmlns="http://www.w3.org/2000/svg">
<g clip-path="url(#clip0_3122_740)">
<path d="M26.0907 5.81818L26.9998 3.81818L28.9998 2.90909L26.9998 2L26.0907 0L25.1816 2L23.1816 2.90909L25.1816 3.81818L26.0907 5.81818Z" fill="#0179EF"/>
<path d="M26.0907 10.1816L25.1816 12.1816L23.1816 13.0907L25.1816 13.9998L26.0907 15.9998L26.9998 13.9998L28.9998 13.0907L26.9998 12.1816L26.0907 10.1816Z" fill="#0179EF"/>
<path d="M20.6364 6.18164L18.8182 2.18164L17 6.18164L13 7.99982L17 9.818L18.8182 13.818L20.6364 9.818L24.6364 7.99982L20.6364 6.18164ZM19.5382 8.71982L18.8182 10.3053L18.0982 8.71982L16.5127 7.99982L18.0982 7.27982L18.8182 5.69437L19.5382 7.27982L21.1236 7.99982L19.5382 8.71982Z" fill="#0179EF"/>
<path d="M28.3494 19.9545H33.9347L33.5938 22H35.946L36.2869 19.9545H37.7301L38.054 17.983H36.6108L37.8778 10.3636H34.7983L28.6676 18.017L28.3494 19.9545ZM34.3097 17.983H31.1562L31.1676 17.892L35.0312 13.0455H35.1278L34.3097 17.983ZM42.5284 13.2727H40.0284L41.8011 17.6364L38.483 22H40.983L43.1761 18.983L44.3977 22H46.8693L45 17.6364L48.2557 13.2727H45.7727L43.6193 16.3239L42.5284 13.2727Z" fill="#0179EF"/>
</g>
<defs>
<clipPath id="clip0_3122_740">
<rect width="70" height="32" fill="white"/>
</clipPath>
</defs>
</svg>
