<svg width="50" height="50" viewBox="0 0 50 50" fill="none" xmlns="http://www.w3.org/2000/svg">
<path d="M34.9552 7.73977L46.6394 12.2411L44.6867 24.9887L46.6901 37.7758L34.7469 42.2049L25.0338 50.3699L15.3936 42.1516L3.39151 37.6707L5.51772 25.3294L3.49386 12.2244L15.5253 7.64229L25.0736 -0.413894L34.9552 7.73977Z" fill="#C4C4C4"/>
<path d="M34.9552 7.73977L46.6394 12.2411L44.6867 24.9887L46.6901 37.7758L34.7469 42.2049L25.0338 50.3699L15.3936 42.1516L3.39151 37.6707L5.51772 25.3294L3.49386 12.2244L15.5253 7.64229L25.0736 -0.413894L34.9552 7.73977Z" fill="url(#gold_paint0_linear)"/>
<g opacity="0.5">
<circle cx="25.0928" cy="24.9112" r="15.7269" transform="rotate(-69.4841 25.0928 24.9112)" fill="#C4C4C4"/>
<circle cx="25.0928" cy="24.9112" r="15.7269" transform="rotate(-69.4841 25.0928 24.9112)" fill="url(#gold_paint1_linear)"/>
</g>
<g opacity="0.6">
<circle cx="25.0918" cy="24.9112" r="13.4297" fill="#C4C4C4"/>
<circle cx="25.0918" cy="24.9112" r="13.4297" fill="url(#gold_paint2_linear)"/>
</g>
<path d="M24.2685 23.8821C23.4583 24.7223 22.0943 24.4919 21.5818 23.4305L20.9775 22.1741C19.9245 23.2662 19.332 24.7484 19.332 26.2952V26.4411C19.332 29.7404 21.9106 32.4145 25.092 32.4145C28.2733 32.4145 30.8519 29.7404 30.8519 26.4411C30.8519 24.8221 30.1454 23.2908 28.9294 22.2755L28.0364 21.529C27.1329 20.7733 26.5005 19.7242 26.2428 18.5507L25.914 17.0547C24.3722 18.6536 23.7027 20.9469 24.1307 23.1648L24.2685 23.8821Z" fill="#C4C4C4"/>
<path d="M24.2685 23.8821C23.4583 24.7223 22.0943 24.4919 21.5818 23.4305L20.9775 22.1741C19.9245 23.2662 19.332 24.7484 19.332 26.2952V26.4411C19.332 29.7404 21.9106 32.4145 25.092 32.4145C28.2733 32.4145 30.8519 29.7404 30.8519 26.4411C30.8519 24.8221 30.1454 23.2908 28.9294 22.2755L28.0364 21.529C27.1329 20.7733 26.5005 19.7242 26.2428 18.5507L25.914 17.0547C24.3722 18.6536 23.7027 20.9469 24.1307 23.1648L24.2685 23.8821Z" fill="url(#gold_paint3_linear)"/>
<path d="M31.9719 26.4411C31.9719 24.4988 31.1246 22.6493 29.6473 21.4158L28.7549 20.6699C28.7548 20.6698 28.7547 20.6698 28.7546 20.6697C28.0451 20.0761 27.5422 19.2464 27.3367 18.3105L27.3366 18.3103L27.0078 16.8143C26.9192 16.411 26.6159 16.0892 26.2186 15.9769C25.8212 15.8646 25.3943 15.9801 25.1077 16.2773C23.3336 18.1171 22.5576 20.7321 23.0105 23.2666C22.8433 23.2438 22.6841 23.1373 22.5907 22.9441C22.5906 22.944 22.5905 22.9438 22.5904 22.9436L21.9868 21.6887C21.8279 21.3583 21.5173 21.1266 21.1553 21.0683C20.7934 21.0101 20.4258 21.1328 20.1713 21.3967C18.9129 22.7017 18.212 24.4643 18.212 26.2952V26.4411C18.212 30.3201 21.254 33.5345 25.092 33.5345C28.9299 33.5345 31.9719 30.3201 31.9719 26.4411Z" stroke="url(#gold_paint4_linear)" stroke-width="2.23997" stroke-linecap="round" stroke-linejoin="round"/>
<path d="M20.6657 26.2955C20.6657 25.7748 20.7517 25.2652 20.9143 24.7868C22.0384 25.9775 23.9881 26.0944 25.2286 24.808C25.5296 24.4958 25.66 24.0568 25.5782 23.631L25.4402 22.9125C25.2795 22.0798 25.3101 21.2362 25.5116 20.4431C25.9184 21.2493 26.4841 21.969 27.1812 22.5521L28.0752 23.2993C28.98 24.0547 29.5189 25.2075 29.5189 26.4414C29.5189 29.0505 27.4919 31.0815 25.0923 31.0815C22.6926 31.0815 20.6657 29.0505 20.6657 26.4414V26.2955Z" fill="#C4C4C4"/>
<path d="M20.6657 26.2955C20.6657 25.7748 20.7517 25.2652 20.9143 24.7868C22.0384 25.9775 23.9881 26.0944 25.2286 24.808C25.5296 24.4958 25.66 24.0568 25.5782 23.631L25.4402 22.9125C25.2795 22.0798 25.3101 21.2362 25.5116 20.4431C25.9184 21.2493 26.4841 21.969 27.1812 22.5521L28.0752 23.2993C28.98 24.0547 29.5189 25.2075 29.5189 26.4414C29.5189 29.0505 27.4919 31.0815 25.0923 31.0815C22.6926 31.0815 20.6657 29.0505 20.6657 26.4414V26.2955Z" fill="url(#gold_paint5_linear)"/>
<defs>
<linearGradient id="gold_paint0_linear" x1="5.39228" y1="33.717" x2="46.1265" y2="13.5386" gradientUnits="userSpaceOnUse">
<stop stop-color="#FBF3E1"/>
<stop offset="1" stop-color="#FBD26C"/>
</linearGradient>
<linearGradient id="gold_paint1_linear" x1="17.1317" y1="37.349" x2="35.9316" y2="12.5847" gradientUnits="userSpaceOnUse">
<stop stop-color="#FBF3E1"/>
<stop offset="1" stop-color="#FBD26C"/>
</linearGradient>
<linearGradient id="gold_paint2_linear" x1="18.2936" y1="35.5322" x2="34.3474" y2="14.3852" gradientUnits="userSpaceOnUse">
<stop stop-color="#FBF3E1"/>
<stop offset="1" stop-color="#FBD26C"/>
</linearGradient>
<linearGradient id="gold_paint3_linear" x1="22.1762" y1="30.8083" x2="31.7068" y2="21.3927" gradientUnits="userSpaceOnUse">
<stop stop-color="#FBF3E1"/>
<stop offset="1" stop-color="#FBD26C"/>
</linearGradient>
<linearGradient id="gold_paint4_linear" x1="19.5" y1="49" x2="36.2479" y2="23.4202" gradientUnits="userSpaceOnUse">
<stop stop-color="#FBF3E1"/>
<stop offset="1" stop-color="#ECC564"/>
</linearGradient>
<linearGradient id="gold_paint5_linear" x1="26.999" y1="20.5" x2="23.5154" y2="31.39" gradientUnits="userSpaceOnUse">
<stop stop-color="#FFFFFE"/>
<stop offset="1" stop-color="#ECC564"/>
</linearGradient>
</defs>
</svg>
