<svg width="16" height="16" viewBox="0 0 16 16" fill="none" xmlns="http://www.w3.org/2000/svg">
<path d="M13.4061 -0.000479072H6.0918V9.866H15.9661V2.55174C15.9659 2.21596 15.8996 1.8835 15.7708 1.57339C15.642 1.26329 15.4533 0.981639 15.2155 0.744565C14.9777 0.507492 14.6955 0.319654 14.385 0.191808C14.0745 0.063962 13.7419 -0.00138093 13.4061 -0.000479072Z" fill="#9FA3BC"/>
<path d="M3.81347 -0.000488281H2.55313C1.876 -0.000488281 1.2266 0.268502 0.747796 0.747308C0.26899 1.22611 0 1.87551 0 2.55265L0 3.81299H3.81347V-0.000488281Z" fill="#9FA3BC"/>
<path d="M0 6.09131H3.81347V9.90479H0V6.09131Z" fill="#9FA3BC"/>
<path d="M12.1865 15.968H13.4469C13.7827 15.968 14.1153 15.9018 14.4255 15.773C14.7357 15.6443 15.0175 15.4556 15.2546 15.2178C15.4918 14.98 15.6797 14.6977 15.8076 14.3872C15.9355 14.0766 16.0009 13.7439 16 13.408V12.187H12.1865V15.968Z" fill="#9FA3BC"/>
<path d="M6.09375 12.187H9.90722V16.0005H6.09375V12.187Z" fill="#9FA3BC"/>
<path d="M0 12.187V13.4474C0 13.7826 0.0660388 14.1146 0.194346 14.4244C0.322653 14.7342 0.510715 15.0156 0.747796 15.2527C0.984876 15.4898 1.26633 15.6778 1.57609 15.8061C1.88585 15.9344 2.21785 16.0005 2.55313 16.0005H3.81347V12.187H0Z" fill="#9FA3BC"/>
</svg>
