<svg width="16" height="16" viewBox="0 0 16 16" fill="none" xmlns="http://www.w3.org/2000/svg">
<path d="M8 16C12.4183 16 16 12.4183 16 8C16 3.58172 12.4183 0 8 0C3.58172 0 0 3.58172 0 8C0 12.4183 3.58172 16 8 16Z" fill="#854CE6"/>
<path d="M10.622 12.5998L10.69 12.5722L11.8298 11.9094L13.0057 11.227C13.0685 11.1928 13.1252 11.1489 13.1737 11.0968C13.2597 11.0063 13.3155 10.8921 13.3337 10.7694C13.3337 10.7142 13.3337 8.00803 13.3337 7.9489C13.3119 7.81283 13.2493 7.68643 13.1537 7.58596C13.0642 7.50263 12.9632 7.43223 12.8537 7.3769L10.714 6.14218C10.6242 6.10196 10.5267 6.08116 10.428 6.08116C10.3294 6.08116 10.2319 6.10196 10.1421 6.14218C10.1061 6.14218 9.86206 6.29602 9.32213 6.60766L8.01033 7.36903L6.71446 8.1185C6.31453 8.3631 5.94258 8.56823 5.91458 8.5761C5.82418 8.62143 5.72401 8.64436 5.62263 8.64316C5.52222 8.64336 5.42284 8.6233 5.33066 8.58403C5.28667 8.58403 4.09081 7.8779 4.02682 7.83056C3.9642 7.78356 3.90894 7.72776 3.86284 7.6649C3.81166 7.58783 3.77508 7.5023 3.75485 7.41236C3.74057 7.14956 3.74057 6.88623 3.75485 6.62344C3.72269 6.3172 3.7321 6.00809 3.78285 5.70431C3.80914 5.63014 3.84546 5.55981 3.89084 5.49524C3.93623 5.43402 3.99165 5.38068 4.05482 5.33744C4.10281 5.30588 5.25467 4.63133 5.29066 4.60372C5.38349 4.56158 5.48445 4.53977 5.58662 4.53977C5.6888 4.53977 5.78977 4.56158 5.88259 4.60372C5.92259 4.62344 7.08246 5.29799 7.17039 5.34928C7.25513 5.40598 7.32506 5.48168 7.37439 5.57018C7.40653 5.62442 7.43079 5.68285 7.44639 5.74375V5.80293V6.29602C7.44639 6.56822 7.44639 6.79303 7.44639 6.79303L7.97833 6.48932L8.50226 6.18557V5.69248C8.50226 5.14415 8.50226 5.16387 8.46626 5.05341C8.41766 4.92064 8.33166 4.80433 8.21833 4.71812C8.17833 4.6905 6.00257 3.42817 5.89858 3.37294L5.8146 3.3335H5.77861H5.37865L5.31866 3.35716C5.27467 3.37688 4.96671 3.55046 4.11881 4.03962C3.49089 4.40254 2.96295 4.71022 2.94296 4.726C2.87079 4.7756 2.80925 4.83875 2.76189 4.91186C2.71453 4.98498 2.68229 5.06659 2.66699 5.15204C2.66699 5.20726 2.66699 5.25066 2.66699 6.59977C2.66699 7.9489 2.66699 7.99623 2.66699 8.0475C2.68237 8.1351 2.71645 8.21843 2.76698 8.2921C2.81907 8.36576 2.88249 8.43096 2.95495 8.48536C3.00695 8.5169 5.22667 9.8069 5.28267 9.8345C5.37841 9.87883 5.48286 9.90176 5.58863 9.90176C5.69439 9.90176 5.79885 9.87883 5.89459 9.8345L6.69446 9.36503C7.34639 8.97056 7.55033 8.8641 7.98633 8.62343C8.42226 8.38283 8.54226 8.31576 9.28212 7.86996L10.0821 7.38476C10.2497 7.3089 10.441 7.30183 10.614 7.3651C10.642 7.37203 10.6689 7.38263 10.694 7.39663C10.742 7.4203 11.9458 8.1461 11.9818 8.18556C12.1185 8.29243 12.2098 8.44576 12.2378 8.61556C12.2378 8.6865 12.2378 10.158 12.2378 10.229C12.2094 10.4036 12.1133 10.5606 11.9698 10.6668C11.9298 10.6944 10.77 11.3808 10.678 11.4203C10.5867 11.4604 10.4879 11.4812 10.388 11.4812C10.2881 11.4812 10.1893 11.4604 10.0981 11.4203C10.0661 11.4203 9.83406 11.2704 9.43813 11.0258L8.79426 10.6314C8.67939 10.5448 8.59319 10.4268 8.54626 10.2921C8.51426 10.1934 8.51426 10.2211 8.51026 9.66883V9.1639L7.98633 9.46763L7.46239 9.77136V10.2802C7.46239 10.8325 7.46239 10.8286 7.49039 10.9232C7.51312 10.9925 7.54686 11.0578 7.59033 11.1166C7.63539 11.1767 7.68933 11.2299 7.75033 11.2744C7.78633 11.302 9.99806 12.5958 10.0501 12.6234C10.1021 12.6511 10.1301 12.6668 10.3501 12.6668H10.5461L10.622 12.5998Z" fill="white"/>
<path d="M15.6663 8.00016C15.6663 12.2344 12.2339 15.6668 7.99967 15.6668C3.76549 15.6668 0.333008 12.2344 0.333008 8.00016C0.333008 3.76598 3.76549 0.333496 7.99967 0.333496C12.2339 0.333496 15.6663 3.76598 15.6663 8.00016Z" stroke="black" stroke-opacity="0.097"/>
</svg>
