<?xml version="1.0" encoding="utf-8"?>
<svg viewBox="0 4.691 38.42 30.667" fill="white" xmlns="http://www.w3.org/2000/svg">
  <path fill-rule="evenodd" clip-rule="evenodd" d="M8.23489 4.7749C7.98795 4.7749 7.74674 4.86232 7.56526 5.02445C7.38296 5.18734 7.2749 5.41404 7.2749 5.65658V34.3432C7.2749 34.5858 7.38296 34.8125 7.56526 34.9753C7.74674 35.1375 7.98795 35.2249 8.23489 35.2249H28.3157C29.4261 35.2239 30.4951 34.8296 31.2871 34.122C32.08 33.4136 32.5315 32.4471 32.5326 31.4331V8.56648C32.5315 7.55249 32.08 6.58621 31.2871 5.87782C30.4951 5.17017 29.4259 4.77586 28.3155 4.7749H8.23489ZM9.19874 33.4615V6.53827H28.3155C28.9324 6.53827 29.5196 6.75746 29.949 7.14107C30.3775 7.52395 30.6126 8.03745 30.6126 8.56672V31.4331C30.6126 31.9624 30.3775 32.4758 29.949 32.8587C29.5196 33.2423 28.9324 33.4615 28.3155 33.4615H9.19874Z"/>
  <path d="M19.6357 25.2338C23.7824 25.2338 27.1561 21.8598 27.1561 17.713C27.1561 13.5663 23.7824 10.1923 19.6357 10.1923C15.4889 10.1923 12.1152 13.5663 12.1152 17.713C12.1152 21.8598 15.4889 25.2338 19.6357 25.2338ZM19.6374 23.9836C19.6372 23.9836 19.6371 23.9836 19.637 23.9836C19.3513 23.939 18.8057 22.9016 18.4846 20.9912H20.7865C20.4657 22.9015 19.9207 23.9389 19.6374 23.9836ZM25.5811 15.734C26.0239 17.0604 26.0148 18.4481 25.5504 19.7756C25.3124 19.707 25.6695 19.7606 22.2022 19.7412C22.3135 18.4787 22.3229 17.134 22.2087 15.7746C25.5932 15.7555 25.351 15.8131 25.5811 15.734ZM25.0254 14.5246H22.0642C21.9016 13.4294 21.6495 12.4339 21.3011 11.6738C22.8797 12.1099 24.2072 13.1468 25.0254 14.5246ZM22.0517 20.9912H24.9709C24.1487 22.3243 22.8452 23.3256 21.3011 23.7522C21.64 23.0127 21.8887 22.0514 22.0517 20.9912ZM19.634 11.4423C19.6341 11.4423 19.6342 11.4423 19.6344 11.4423C19.9244 11.4878 20.483 12.5558 20.8019 14.5246H18.469C18.7876 12.5559 19.3459 11.4878 19.634 11.4423ZM18.3154 15.7746H20.9556C21.0739 17.1022 21.0649 18.4984 20.9485 19.7412H18.3225C18.2046 18.4841 18.1985 17.0854 18.3154 15.7746ZM17.97 11.6739C17.6216 12.4339 17.3695 13.4294 17.2068 14.5246H14.2459C15.0641 13.1469 16.3915 12.11 17.97 11.6739ZM13.7209 19.7755C13.2554 18.4443 13.2486 17.0575 13.6902 15.7341C13.9194 15.8129 13.7183 15.7558 17.0622 15.7746C16.9491 17.1217 16.9566 18.4674 17.0688 19.7412C13.6087 19.7605 13.9596 19.7066 13.7209 19.7755ZM17.2194 20.9912C17.3824 22.0514 17.631 23.0126 17.97 23.7521C16.426 23.3256 15.1225 22.3242 14.3005 20.9912H17.2194Z"/>
  <path d="M25.7517 28.1184H13.3127C12.486 28.1184 12.4853 29.3684 13.3127 29.3684H25.7517C26.5783 29.3684 26.579 28.1184 25.7517 28.1184Z"/>
</svg>