<svg width="100" height="100" viewBox="0 0 100 100" fill="none" xmlns="http://www.w3.org/2000/svg">
<path d="M50 100C77.6142 100 100 77.6142 100 50C100 22.3857 77.6142 0 50 0C22.3857 0 0 22.3857 0 50C0 77.6142 22.3857 100 50 100Z" fill="#854CE6"/>
<path d="M66.3857 78.7462L66.8107 78.5737L73.9345 74.4316L81.2841 70.1666C81.6761 69.9529 82.0307 69.6783 82.3336 69.3529C82.8711 68.787 83.2199 68.0733 83.3336 67.3066C83.3336 66.9612 83.3336 50.0479 83.3336 49.6783C83.1978 48.8279 82.8061 48.0379 82.2086 47.41C81.6495 46.8891 81.0182 46.4491 80.3341 46.1033L66.9607 38.3863C66.3995 38.135 65.7899 38.0049 65.1732 38.0049C64.557 38.0049 63.9478 38.135 63.3862 38.3863C63.1612 38.3863 61.6362 39.3478 58.2616 41.2955L50.0628 46.0541L41.9637 50.7383C39.4641 52.267 37.1394 53.5491 36.9644 53.5983C36.3994 53.8816 35.7734 54.025 35.1397 54.0175C34.5122 54.0187 33.891 53.8933 33.3149 53.6479C33.0399 53.6479 25.5659 49.2345 25.1659 48.9387C24.7745 48.6449 24.4292 48.2962 24.141 47.9033C23.8212 47.4216 23.5925 46.887 23.4661 46.325C23.3768 44.6825 23.3768 43.0366 23.4661 41.3942C23.2651 39.4802 23.3239 37.5482 23.6411 35.6496C23.8054 35.186 24.0324 34.7465 24.316 34.3429C24.5997 33.9603 24.9461 33.6269 25.3409 33.3567C25.6409 33.1594 32.8399 28.9435 33.0649 28.7709C33.6451 28.5076 34.2761 28.3712 34.9147 28.3712C35.5533 28.3712 36.1844 28.5076 36.7645 28.7709C37.0144 28.8942 44.2637 33.1101 44.8132 33.4307C45.3428 33.785 45.7799 34.2582 46.0882 34.8113C46.2891 35.1503 46.4407 35.5155 46.5382 35.8961V36.266V39.3478C46.5382 41.049 46.5382 42.4541 46.5382 42.4541L49.8628 40.5559L53.1374 38.6575V35.5757C53.1374 32.1486 53.1374 32.2719 52.9124 31.5815C52.6087 30.7517 52.0712 30.0247 51.3628 29.4859C51.1128 29.3133 37.5143 21.4237 36.8644 21.0786L36.3395 20.832H36.1146H33.6149L33.2399 20.9799C32.9649 21.1032 31.0402 22.1881 25.7409 25.2453C21.8164 27.5135 18.5167 29.4366 18.3918 29.5352C17.9407 29.8452 17.5561 30.2399 17.2601 30.6968C16.9641 31.1538 16.7626 31.6639 16.667 32.1979C16.667 32.543 16.667 32.8143 16.667 41.2462C16.667 49.6783 16.667 49.9741 16.667 50.2945C16.7631 50.842 16.9761 51.3629 17.2919 51.8233C17.6175 52.2837 18.0139 52.6912 18.4667 53.0312C18.7917 53.2283 32.665 61.2908 33.0149 61.4633C33.6133 61.7404 34.2662 61.8837 34.9272 61.8837C35.5882 61.8837 36.2411 61.7404 36.8395 61.4633L41.8387 58.5291C45.9132 56.0637 47.1878 55.3983 49.9128 53.8941C52.6374 52.3904 53.3874 51.9712 58.0116 49.1849L63.0112 46.1524C64.0591 45.6783 65.2545 45.6341 66.3357 46.0295C66.5107 46.0729 66.6787 46.1391 66.8357 46.2266C67.1357 46.3745 74.6595 50.9108 74.8845 51.1574C75.7387 51.8254 76.3095 52.7837 76.4845 53.845C76.4845 54.2883 76.4845 63.485 76.4845 63.9287C76.307 65.0204 75.7066 66.0016 74.8095 66.6654C74.5595 66.8379 67.3107 71.1279 66.7357 71.3745C66.1653 71.6254 65.5478 71.755 64.9232 71.755C64.2991 71.755 63.6812 71.6254 63.1112 71.3745C62.9112 71.3745 61.4612 70.4379 58.9866 68.9091L54.9624 66.4437C54.2445 65.9029 53.7057 65.1654 53.4124 64.3233C53.2124 63.7066 53.2124 63.8795 53.1874 60.4279V57.272L49.9128 59.1704L46.6382 61.0687V64.2491C46.6382 67.7008 46.6382 67.6762 46.8132 68.2679C46.9553 68.7008 47.1662 69.1087 47.4378 69.4762C47.7195 69.852 48.0566 70.1845 48.4378 70.4625C48.6628 70.635 62.4862 78.7216 62.8112 78.8941C63.1362 79.067 63.3112 79.1654 64.6862 79.1654H65.9112L66.3857 78.7462Z" fill="white"/>
<path d="M97.9163 49.9987C97.9163 76.4625 76.4634 97.9154 49.9997 97.9154C23.5361 97.9154 2.08301 76.4625 2.08301 49.9987C2.08301 23.5351 23.5361 2.08203 49.9997 2.08203C76.4634 2.08203 97.9163 23.5351 97.9163 49.9987Z" stroke="black" stroke-opacity="0.097"/>
</svg>
