<svg width="18" height="16" viewBox="0 0 18 16" fill="none" xmlns="http://www.w3.org/2000/svg">
<path d="M13.6292 4.89021C13.3003 4.7003 12.8773 4.7003 12.5013 4.89021L9.86945 6.45697L8.08355 7.45401L5.49869 9.02077C5.16971 9.21068 4.74674 9.21068 4.37076 9.02077L2.34987 7.78635C2.02089 7.59644 1.7859 7.21662 1.7859 6.78932V4.41543C1.7859 4.03561 1.97389 3.65579 2.34987 3.4184L4.37076 2.23145C4.69974 2.04154 5.12272 2.04154 5.49869 2.23145L7.51958 3.46588C7.84856 3.65579 8.08355 4.03561 8.08355 4.46291V6.02967L9.86945 4.98516V3.37092C9.86945 2.9911 9.68146 2.61128 9.30548 2.37389L5.54569 0.142433C5.21671 -0.0474777 4.79373 -0.0474777 4.41775 0.142433L0.563969 2.42136C0.18799 2.61128 0 2.9911 0 3.37092V7.83383C0 8.21365 0.18799 8.59347 0.563969 8.83086L4.37076 11.0623C4.69974 11.2522 5.12272 11.2522 5.49869 11.0623L8.08355 9.54303L9.86945 8.49852L12.4543 6.97923C12.7833 6.78932 13.2063 6.78932 13.5822 6.97923L15.6031 8.16617C15.9321 8.35608 16.1671 8.73591 16.1671 9.16321V11.5371C16.1671 11.9169 15.9791 12.2967 15.6031 12.5341L13.6292 13.7211C13.3003 13.911 12.8773 13.911 12.5013 13.7211L10.4804 12.5341C10.1514 12.3442 9.91645 11.9644 9.91645 11.5371V10.0178L8.13055 11.0623V12.6291C8.13055 13.0089 8.31854 13.3887 8.69452 13.6261L12.5013 15.8576C12.8303 16.0475 13.2533 16.0475 13.6292 15.8576L17.436 13.6261C17.765 13.4362 18 13.0564 18 12.6291V8.11869C18 7.73887 17.812 7.35905 17.436 7.12166L13.6292 4.89021Z" fill="#8247E5"/>
</svg>
