<svg width="32" height="33" viewBox="0 0 32 33" fill="none" xmlns="http://www.w3.org/2000/svg">
<path d="M15.7031 28.2787C11.0316 28.2787 7.33331 24.4831 7.33331 19.9088C7.33331 15.6266 14.146 6.38087 14.9246 5.31031C15.3138 4.82369 16.0924 4.82369 16.4817 5.31031C17.2603 6.38087 24.073 15.6266 24.073 19.9088C24.073 24.4831 20.3747 28.2787 15.7031 28.2787ZM15.7031 7.54875C13.3674 10.7604 9.27978 17.0865 9.27978 19.9088C9.27978 23.4125 12.1995 26.3322 15.7031 26.3322C19.2068 26.3322 22.1265 23.4125 22.1265 19.9088C22.1265 17.0865 18.0389 10.7604 15.7031 7.54875Z" fill="white"/>
<path d="M15.7032 25.359C15.2165 25.359 14.8273 24.9697 14.7299 24.4831C14.6326 23.9965 15.0219 23.5098 15.6058 23.4125C18.6229 23.1206 19.0122 19.9089 19.0122 19.8115C19.1095 19.3249 19.4988 18.8383 20.0827 18.9356C20.5693 18.9356 21.056 19.4223 20.9586 20.0062C20.764 21.6607 19.5961 24.9697 15.8978 25.359C15.8005 25.359 15.7032 25.359 15.7032 25.359Z" fill="white"/>
</svg>
