<svg width="198" height="195" viewBox="0 0 198 195" fill="none" xmlns="http://www.w3.org/2000/svg">
<circle cx="99.0003" cy="96.0008" r="80" transform="rotate(16 99.0003 96.0008)" fill="url(#rewards_bg_paint0_linear)"/>
<path d="M81.7383 59.0336C81.3239 58.3015 80.7887 58.3656 80.5537 59.1682L71.0463 91.6365L95.5618 80.4399C94.8163 80.7506 93.9132 80.4572 93.5162 79.7558L81.7383 59.0336Z" fill="white"/>
<path d="M95.6584 80.3958L112.355 72.1273C113.117 71.7477 114.415 71.6284 115.234 71.8636L154.444 82.9838C155.264 83.214 155.3 83.6858 154.517 84.0211L85.5512 113.878C84.7681 114.213 83.7626 113.908 83.3133 113.2L71.4343 94.395C70.9865 93.6811 70.8098 92.4441 71.0463 91.6365M95.6584 80.3958L95.5618 80.4399M95.6584 80.3958C95.6265 80.4117 95.5943 80.4264 95.5618 80.4399M71.0463 91.6365L80.5537 59.1682C80.7887 58.3656 81.3239 58.3015 81.7383 59.0336L93.5162 79.7558C93.9132 80.4572 94.8163 80.7506 95.5618 80.4399M71.0463 91.6365L95.5618 80.4399" stroke="white" stroke-width="8.61539" stroke-miterlimit="10"/>
<path d="M64.2158 68.1596C63.3962 67.9294 63.3308 67.4053 64.0798 66.9945L79.6219 58.4513C80.3658 58.039 80.7865 58.366 80.5515 59.1685L77.306 70.2521C77.071 71.0546 76.2033 71.5256 75.3837 71.2955L64.2158 68.1596Z" stroke="white" stroke-width="8.61539" stroke-miterlimit="10"/>
<path d="M96.1714 131.404L103.593 106.057L84.1512 114.523C84.4407 114.982 84.7286 115.438 84.9482 115.785L94.9267 131.571C95.3744 132.285 95.9364 132.206 96.1714 131.404Z" fill="white"/>
<path d="M83.3141 113.199C83.5438 113.561 83.8483 114.044 84.1512 114.523M84.1512 114.523C84.4407 114.982 84.7286 115.438 84.9482 115.785L94.9267 131.571C95.3744 132.285 95.9364 132.206 96.1714 131.404L103.593 106.057L84.1512 114.523Z" stroke="white" stroke-width="8.61539" stroke-miterlimit="10"/>
<path d="M66.7327 65.544L79.6324 58.4522C80.3762 58.0399 81.3255 58.3064 81.745 59.0399L92.6238 78.1739" stroke="white" stroke-width="8.61539" stroke-miterlimit="10"/>
<defs>
<linearGradient id="rewards_bg_paint0_linear" x1="171.118" y1="6.40696" x2="96.18" y2="218.372" gradientUnits="userSpaceOnUse">
<stop stop-color="#E4EBF2"/>
<stop offset="1" stop-color="#FAFCFF"/>
</linearGradient>
</defs>
</svg>
