<svg width="62" height="47" viewBox="0 0 62 47" fill="none" xmlns="http://www.w3.org/2000/svg">
<path d="M11.6839 2.2238C11.3061 1.84607 10.9958 1.9776 10.9958 2.51047V24.0682L23.7547 12.9756C23.3615 13.2946 22.7673 13.2702 22.4054 12.9082L11.6839 2.2238Z" fill="white"/>
<path d="M11.6839 2.2238C11.3061 1.84607 10.9958 1.9776 10.9958 2.51047V24.0682L23.7547 12.9756C23.3615 13.2946 22.7673 13.2702 22.4054 12.9082L11.6839 2.2238Z" fill="url(#paint0_linear)"/>
<path d="M23.805 12.9318L32.3816 4.98259C32.7728 4.61835 33.5316 4.32156 34.0645 4.32493L59.5783 4.39239C60.1111 4.39239 60.2157 4.67569 59.8042 5.01632L23.6229 35.2147C23.2114 35.5553 22.5538 35.5418 22.1592 35.1843L11.7142 25.6938C11.3196 25.3329 10.9958 24.6044 10.9958 24.0682M23.805 12.9318L23.7547 12.9756M23.805 12.9318C23.7887 12.9471 23.7719 12.9616 23.7547 12.9756M10.9958 24.0682V2.51047C10.9958 1.9776 11.3061 1.84607 11.6839 2.2238L22.4054 12.9082C22.7673 13.2702 23.3615 13.2946 23.7547 12.9756M10.9958 24.0682L23.7547 12.9756" stroke="white" stroke-width="3.2" stroke-miterlimit="10"/>
<path d="M2.75852 10.8417C2.22565 10.8417 2.09411 10.5314 2.47185 10.1503L10.3064 2.23144C10.6808 1.85033 10.9911 1.97849 10.9911 2.51136V9.87039C10.9911 10.4033 10.5526 10.8417 10.0197 10.8417H2.75852Z" stroke="white" stroke-width="3.2" stroke-miterlimit="10"/>
<path d="M33.1011 44.1379V27.3086L22.9098 35.8523C23.1645 36.0838 23.4177 36.3141 23.6106 36.4888L32.3827 44.4549C32.7773 44.8158 33.1011 44.6708 33.1011 44.1379Z" fill="white"/>
<path d="M33.1011 44.1379V27.3086L22.9098 35.8523C23.1645 36.0838 23.4177 36.3141 23.6106 36.4888L32.3827 44.4549C32.7773 44.8158 33.1011 44.6708 33.1011 44.1379Z" fill="url(#paint1_linear)"/>
<path d="M22.1738 35.1836C22.3756 35.3664 22.6435 35.61 22.9098 35.8523M22.9098 35.8523C23.1645 36.0838 23.4177 36.3141 23.6106 36.4888L32.3827 44.4549C32.7773 44.8158 33.1011 44.6708 33.1011 44.1379V27.3086L22.9098 35.8523Z" stroke="white" stroke-width="3.2" stroke-miterlimit="10"/>
<path d="M3.81055 8.80478L10.3129 2.23156C10.6873 1.85046 11.3045 1.85046 11.6856 2.22819L21.5876 12.0931" stroke="white" stroke-width="3.2" stroke-miterlimit="10"/>
<defs>
<linearGradient id="paint0_linear" x1="24.5869" y1="30.6394" x2="40.6818" y2="-0.457184" gradientUnits="userSpaceOnUse">
<stop stop-color="#489DF0"/>
<stop offset="1" stop-color="#0179EF"/>
</linearGradient>
<linearGradient id="paint1_linear" x1="25.201" y1="42.1535" x2="35.2471" y2="33.8154" gradientUnits="userSpaceOnUse">
<stop stop-color="#489DF0"/>
<stop offset="1" stop-color="#0179EF"/>
</linearGradient>
</defs>
</svg>
