<svg width="62" height="47" viewBox="0 0 62 47" fill="none" xmlns="http://www.w3.org/2000/svg">
<path d="M11.6836 2.2238C11.3059 1.84607 10.9956 1.9776 10.9956 2.51047V24.0682L23.7545 12.9756C23.3612 13.2946 22.7671 13.2702 22.4051 12.9082L11.6836 2.2238Z" fill="white"/>
<path d="M11.6836 2.2238C11.3059 1.84607 10.9956 1.9776 10.9956 2.51047V24.0682L23.7545 12.9756C23.3612 13.2946 22.7671 13.2702 22.4051 12.9082L11.6836 2.2238Z" fill="url(#paint0_linear)"/>
<path d="M23.8048 12.9318L32.3813 4.98259C32.7725 4.61835 33.5314 4.32156 34.0642 4.32493L59.578 4.39239C60.1109 4.39239 60.2155 4.67569 59.804 5.01632L23.6227 35.2147C23.2112 35.5553 22.5535 35.5418 22.1589 35.1843L11.714 25.6938C11.3194 25.3329 10.9956 24.6044 10.9956 24.0682M23.8048 12.9318L23.7545 12.9756M23.8048 12.9318C23.7884 12.9471 23.7716 12.9616 23.7545 12.9756M10.9956 24.0682V2.51047C10.9956 1.9776 11.3059 1.84607 11.6836 2.2238L22.4051 12.9082C22.7671 13.2702 23.3612 13.2946 23.7545 12.9756M10.9956 24.0682L23.7545 12.9756" stroke="url(#paint1_linear)" stroke-width="3.2" stroke-miterlimit="10"/>
<path d="M2.75852 10.8417C2.22565 10.8417 2.09411 10.5314 2.47185 10.1503L10.3064 2.23144C10.6808 1.85033 10.9911 1.97849 10.9911 2.51136V9.87039C10.9911 10.4033 10.5526 10.8417 10.0197 10.8417H2.75852Z" stroke="url(#paint2_linear)" stroke-width="3.2" stroke-miterlimit="10"/>
<path d="M33.1011 44.1379V27.3086L22.9098 35.8523C23.1645 36.0838 23.4177 36.3141 23.6106 36.4888L32.3827 44.4549C32.7773 44.8158 33.1011 44.6708 33.1011 44.1379Z" fill="white"/>
<path d="M33.1011 44.1379V27.3086L22.9098 35.8523C23.1645 36.0838 23.4177 36.3141 23.6106 36.4888L32.3827 44.4549C32.7773 44.8158 33.1011 44.6708 33.1011 44.1379Z" fill="url(#paint3_linear)"/>
<path d="M22.1738 35.1836C22.3756 35.3664 22.6435 35.61 22.9098 35.8523M22.9098 35.8523C23.1645 36.0838 23.4177 36.3141 23.6106 36.4888L32.3827 44.4549C32.7773 44.8158 33.1011 44.6708 33.1011 44.1379V27.3086L22.9098 35.8523Z" stroke="url(#paint4_linear)" stroke-width="3.2" stroke-miterlimit="10"/>
<path d="M3.81055 8.80478L10.3129 2.23156C10.6873 1.85046 11.3045 1.85046 11.6856 2.22819L21.5876 12.0931" stroke="url(#paint5_linear)" stroke-width="3.2" stroke-miterlimit="10"/>
<defs>
<linearGradient id="paint0_linear" x1="24.5866" y1="30.6394" x2="40.6816" y2="-0.457184" gradientUnits="userSpaceOnUse">
<stop stop-color="#489DF0"/>
<stop offset="1" stop-color="#0179EF"/>
</linearGradient>
<linearGradient id="paint1_linear" x1="24.5866" y1="30.6394" x2="40.6816" y2="-0.457184" gradientUnits="userSpaceOnUse">
<stop stop-color="#489DF0"/>
<stop offset="1" stop-color="#0179EF"/>
</linearGradient>
<linearGradient id="paint2_linear" x1="4.67574" y1="9.56891" x2="9.70165" y2="3.01856" gradientUnits="userSpaceOnUse">
<stop stop-color="#489DF0"/>
<stop offset="1" stop-color="#0179EF"/>
</linearGradient>
<linearGradient id="paint3_linear" x1="25.201" y1="42.1535" x2="35.2471" y2="33.8154" gradientUnits="userSpaceOnUse">
<stop stop-color="#489DF0"/>
<stop offset="1" stop-color="#0179EF"/>
</linearGradient>
<linearGradient id="paint4_linear" x1="25.201" y1="42.1535" x2="35.2471" y2="33.8154" gradientUnits="userSpaceOnUse">
<stop stop-color="#489DF0"/>
<stop offset="1" stop-color="#0179EF"/>
</linearGradient>
<linearGradient id="paint5_linear" x1="8.73526" y1="10.6303" x2="13.0981" y2="0.561037" gradientUnits="userSpaceOnUse">
<stop stop-color="#489DF0"/>
<stop offset="1" stop-color="#0179EF"/>
</linearGradient>
</defs>
</svg>
