<?xml version="1.0" encoding="utf-8"?>
<!-- Generator: Adobe Illustrator 25.4.1, SVG Export Plug-In . SVG Version: 6.00 Build 0)  -->
<svg version="1.1" id="Layer_1" xmlns="http://www.w3.org/2000/svg" xmlns:xlink="http://www.w3.org/1999/xlink" x="0px" y="0px"
	 viewBox="0 0 320 320" style="enable-background:new 0 0 320 320;" xml:space="preserve">
<style type="text/css">
	.st0{fill:#0179EF;}
	.st1{fill:none;stroke:#FFFFFF;stroke-width:7;stroke-miterlimit:10;}
	.st2{display:none;}
	.st3{display:inline;fill:#FFFFFF;}
	.st4{display:inline;fill:#FFFFFF;stroke:#FFFFFF;stroke-miterlimit:10;}
</style>
<circle class="st0" cx="159" cy="160" r="148"/>
<g>
	<g>
		<g>
			<g>
				<path class="st1" d="M95.1,108.4c0-1.9,1-2.4,2.3-1.1l35.8,35.6c1.3,1.3,3.4,1.3,4.7,0.1l28.6-26.5c1.3-1.2,3.8-2.2,5.6-2.4
					h85.1c1.8,0.5,2.1,1.4,0.8,2.6L137.3,217.3c-1.4,1.1-3.6,1.1-4.9-0.1l-34.8-31.6c-1.3-1.2-2.4-3.6-2-5.4v-71.7H95.1z"/>
			</g>
			<g>
				<path class="st1" d="M67.4,136.6c-1.7,0-2.2-1-0.9-2.3l25.7-26.4c1.2-1.3,2.2-0.8,2.2,0.9v24.5c0,1.8-1.5,3.2-3.2,3.2
					L67.4,136.6L67.4,136.6z"/>
			</g>
			<g>
				<path class="st1" d="M168.6,191.1v56c0,1.8-1.1,2.3-2.4,1.1L137,221.6c-1.3-1.2-3.5-3.2-4.8-4.4l-34.8-31.6
					c-1.3-1.2-1.3-3.2,0-4.4l62.6-58.7"/>
			</g>
			<g>
				<path class="st1" d="M71.2,129.2l21.7-21.9c1.2-1.3,3.3-1.3,4.6,0l33,32.9"/>
			</g>
		</g>
	</g>
	<g id="CAPITAL_Inter_00000101061959261370862290000014807062035419742080_">
		<g id="CAPITAL_Inter_00000070823999375987308070000015413441744534682240_" class="st2">
			<path class="st3" d="M259.2,238.3h-2c-0.4-2-1.1-4-2.2-6.1c-1.1-2.1-2.5-4-4.3-5.7s-3.9-3.2-6.3-4.2s-5.2-1.6-8.2-1.6
				c-4.1,0-7.9,1.1-11.4,3.4c-3.5,2.2-6.3,5.5-8.4,9.8c-2.1,4.3-3.2,9.6-3.1,15.8c0,6.3,1.1,11.6,3.2,15.9c2.1,4.3,4.9,7.5,8.4,9.7
				s7.3,3.3,11.4,3.3c3.1,0,5.8-0.5,8.2-1.6c2.4-1.1,4.5-2.5,6.3-4.2c1.8-1.8,3.2-3.7,4.3-5.8c1.1-2.1,1.8-4.1,2.2-6.1h2
				c-0.4,2.1-1.1,4.3-2.2,6.6s-2.6,4.4-4.5,6.4s-4.2,3.6-6.9,4.8c-2.7,1.2-5.8,1.8-9.3,1.9c-4.9,0-9.2-1.3-13-3.8
				c-3.7-2.6-6.6-6.2-8.7-10.8c-2.1-4.6-3.2-10-3.2-16.1c0-6.1,1-11.5,3.1-16.1c2.1-4.6,5-8.2,8.7-10.8c3.7-2.6,8.1-3.9,13-3.9
				c3.5,0,6.6,0.6,9.3,1.8c2.7,1.2,5,2.8,6.9,4.7s3.4,4.1,4.5,6.4C258,234,258.8,236.2,259.2,238.3z"/>
			<path class="st3" d="M285.6,280h-2l21.6-60.7h2.7l21.9,60.7h-2l-21.1-58.5h-0.3L285.6,280z M292.9,257.5h28.1v2.2h-28.1V257.5z"
				/>
			<path class="st3" d="M357.1,280v-61.9H375c3.4,0.4,6.4,1.1,9.1,2.7c2.6,1.5,4.7,3.6,6.2,6.3c1.5,2.7,2.3,5.8,2.3,9.3
				c0,3.5-0.7,6.5-2.2,9.2c-1.5,2.7-3.6,4.8-6.2,6.3c-2.6,1.5-5.7,2.3-9.1,2.2h-16.9v-2.2l16.7,0c3,0,5.7-0.7,8-2
				c2.3-1.3,4.1-3.2,5.4-5.6c1.3-2.4,2-5.1,2-8.1c0-3.1-0.7-5.8-2-8.2c-1.3-2.4-3.1-4.2-5.5-5.6c-2.3-1.3-5-2-8-2h-15.5V280H357.1z"
				/>
			<path class="st3" d="M425.7,218.1v60.7h-2.2v-60.7H425.7z"/>
			<path class="st3" d="M454.9,220.4v-2.3l41.6-0.1v2.3l-20.2,0l0.1,59.6h-1.3l-0.1-59.6L454.9,220.4z"/>
			<path class="st3" d="M521.4,278.8h-2l21.6-60.7l2.7,0l21.9,60.8h-2l-21.1-58.5h-0.3L521.4,278.8z M528,256.3h28.1v2.2H528V256.3z
				"/>
			<path class="st3" d="M593.3,278.8v-60.7h2.2v58.5h30.4v2.2H593.3z"/>
		</g>
	</g>
	<g id="MARKETS_Inter_00000050632660006010849190000012154421456626099846_">
		<g id="MARKETS_Inter_00000161597483285169819110000017035437450798366609_" class="st2">
			<path class="st4" d="M214.8,218.7h1.2l25.2,58.5h0.1l24.9-58.5h1.5v60.7h-2.2l-0.1-55.1H265l-23.5,55.1H241l-23.8-55.1H217v55.1
				h-2.2V218.7z"/>
			<path class="st4" d="M297.4,279.4h-2l21.6-60.7l2.7,0l21.9,60.8h-2l-21.1-58.5h-0.3L297.4,279.4z M304.7,256.9h28.1v2.2h-28.1
				V256.9z"/>
			<path class="st4" d="M368.9,279.4v-60.7h17.9c3.4-0.2,6.4,0.5,9.1,2c2.6,1.5,4.7,3.5,6.2,6.1c1.5,2.6,2.3,5.7,2.3,9.2
				c0,3.5-0.7,6.5-2.2,9.1c-1.5,2.6-3.6,4.6-6.2,6.1c-2.6,1.5-5.7,2.2-9.1,2.5H370v-2.2l17.3,0c3.1,0,5.9-0.7,8.3-2
				c2.4-1.3,4.3-3.1,5.6-5.5c1.4-2.3,2-5.1,2-8.3c0-3.2-0.7-6-2.1-8.3c-1.4-2.4-3.2-4.2-5.6-5.5c-2.4-1.3-5.1-1.9-8.3-1.9h-16.1
				v59.6H368.9z M392.2,251.3l15.3,28.1h-2.2L390,251.3H392.2z"/>
			<path class="st4" d="M435.2,280.5v-61.9h2.2l0.1,38.2h0.2l34.6-38.2l2.6,0l-26.7,29.5l26.5,31.3h-2.4l-25.5-30l-9.4,10.2v21
				H435.2z"/>
			<path class="st4" d="M502.7,279.4v-61.9h32.6v2.2l-31.5,0.1l0.1,28.1l29.2-0.1v1.2l-29.2,0.1l0.1,28.1h32.6v2.2H502.7z"/>
			<path class="st4" d="M562.3,219.8v-2.3l41.6-0.1v2.3l-20.2,0l0.1,59.6h-1.3l-0.1-59.6L562.3,219.8z"/>
			<path class="st4" d="M666.1,233.2c-0.3-4.2-1.9-7.6-4.8-10.3c-2.9-2.7-6.7-4-11.5-4c-3.1,0-5.9,0.6-8.3,1.8
				c-2.4,1.2-4.4,2.8-5.8,4.9c-1.4,2.1-2.1,4.5-2.1,7.1c0,1.6,0.3,3,0.8,4.3c0.5,1.3,1.3,2.5,2.4,3.6c1.1,1.1,2.4,2.1,4,2.9
				c1.6,0.9,3.5,1.6,5.7,2.3l6.9,2.1c2.6,0.8,4.9,1.7,6.9,2.7c1.9,1,3.5,2.1,4.8,3.4c1.3,1.3,2.2,2.7,2.8,4.2
				c0.6,1.5,0.9,3.3,0.9,5.1c0,3.2-0.8,6-2.4,8.5c-1.6,2.5-3.9,4.4-6.8,5.9s-6.3,2.1-10.2,2.1c-3.7,0-7-0.6-9.8-1.9
				c-2.8-1.3-5-3.1-6.6-5.4c-1.6-2.3-2.5-4.9-2.7-7.9h1.9c0.2,2.6,1,4.9,2.5,6.9c1.5,2,3.4,3.6,5.9,4.7c2.5,1.1,5.4,1.7,8.8,1.7
				c3.5,0,6.6-0.6,9.2-1.9c2.6-1.2,4.7-2.9,6.1-5.1c1.5-2.2,2.2-4.7,2.2-7.6c0-2.2-0.5-4.1-1.4-5.8c-1-1.7-2.5-3.1-4.5-4.4
				c-2-1.3-4.7-2.4-8-3.4l-6.9-2.1c-4.8-1.5-8.4-3.5-10.8-6s-3.6-5.5-3.6-9c0-3,0.8-5.7,2.3-8.1c1.6-2.4,3.7-4.3,6.4-5.6
				c2.7-1.4,5.8-2.1,9.3-2.1c3.5,0,6.6,0.7,9.2,2.1c2.6,1.4,4.7,3.3,6.3,5.7c1.6,2.4,2.4,5.2,2.6,8.4L666.1,233.2z"/>
		</g>
	</g>
</g>
</svg>
