<?xml version="1.0" encoding="utf-8"?>
<!-- Generator: Adobe Illustrator 25.4.1, SVG Export Plug-In . SVG Version: 6.00 Build 0)  -->
<svg version="1.1" id="Layer_1" xmlns="http://www.w3.org/2000/svg" xmlns:xlink="http://www.w3.org/1999/xlink" x="0px" y="0px"
	 viewBox="0 0 320 320" style="enable-background:new 0 0 320 320;" xml:space="preserve">
<style type="text/css">
	.st0{fill:#0179EF;}
	.st1{fill:#FFFFFF;}
</style>
<circle class="st0" cx="159.7" cy="160.4" r="148"/>
<g>
	<path class="st1" d="M159.7,249c-34.6,0-62.7-28.1-62.7-62.7c0-29.7,44.9-93.5,58.7-112.4l0.4-0.5c0.8-1,2.2-1.6,3.6-1.6
		c1.5,0,2.9,0.6,3.7,1.7l0.3,0.4c13.8,18.9,58.7,82.7,58.7,112.4C222.4,220.8,194.2,249,159.7,249z M157.2,87.3
		c-5.2,7.2-51,70.8-51,98.9c0,29,24.5,53.5,53.5,53.5s53.5-24.5,53.5-53.5c0-27.8-45.8-91.7-51-98.9l-2.5-3.4L157.2,87.3z"/>
	<path class="st1" d="M159.7,226c-2.2,0-4.1-1.8-4.6-4.4c-0.2-1.1,0.2-2,0.6-2.6c0.8-1.1,2.1-2,3.8-2.3
		c23.4-2.3,29.2-25.7,29.4-30.9c0.5-2.1,2-4.3,4.3-4.3c0.2,0,0.4,0,0.6,0l0.2,0h0.2c1,0,2.1,0.6,2.9,1.5c0.5,0.6,1.3,1.8,1,3.4
		c-0.4,3.8-5.1,36.1-37,39.5C160.4,226,159.7,226,159.7,226z"/>
</g>
</svg>
