<svg width="180" height="38" viewBox="0 0 180 38" fill="none" xmlns="http://www.w3.org/2000/svg">
<g clip-path="url(#clip0)">
<path fill-rule="evenodd" clip-rule="evenodd" d="M58.7189 2.5749L65.3726 9.20557C65.6575 9.48915 66.0412 9.65134 66.4431 9.6581C66.8447 9.66486 67.2334 9.51589 67.5276 9.24246C67.5278 9.24225 67.528 9.24204 67.5282 9.24184L73.5982 3.62026C73.788 3.46363 74.0216 3.36954 74.2669 3.35081L90.7222 3.39432L66.3226 23.7607L58.9746 17.0803C58.8257 16.9223 58.7355 16.718 58.7189 16.5016V2.5749ZM92.344 3.39896C92.344 3.39901 92.3425 3.39896 92.3398 3.39868C92.3427 3.39877 92.3441 3.39892 92.344 3.39896ZM91.9647 2.35667C91.9648 2.35668 91.9638 2.35766 91.9617 2.35959C91.9636 2.35763 91.9646 2.35667 91.9647 2.35667ZM58.9586 0.450279C58.7755 0.260015 58.2922 -0.13578 57.6925 0.123C57.3976 0.250282 57.2322 0.486005 57.1492 0.682282C57.0678 0.874893 57.0448 1.07162 57.0448 1.23895V16.5518L57.0461 16.5751C57.0815 17.2115 57.3475 17.8133 57.7942 18.2679L57.8107 18.2848L65.2331 25.0329L65.241 25.0396C65.5314 25.2908 65.9001 25.433 66.2839 25.4418C66.6677 25.4507 67.0427 25.3256 67.3443 25.0881L67.3537 25.0807L93.0297 3.64897L93.0302 3.64854C93.1512 3.54741 93.2867 3.40897 93.3833 3.22808C93.4808 3.04534 93.5734 2.74461 93.4529 2.40943C93.3322 2.07341 93.0684 1.90009 92.8751 1.8214C92.6848 1.74397 92.4919 1.72455 92.3343 1.72444C92.3339 1.72444 92.3335 1.72444 92.333 1.72444L74.2174 1.67655L74.1922 1.67801C73.5708 1.71395 72.9781 1.95106 72.5034 2.35352L72.4894 2.36539L66.4723 7.93797L58.9586 0.450279Z" fill="white"/>
<path fill-rule="evenodd" clip-rule="evenodd" d="M57.04 2.59536V6.32121H53.3616L57.04 2.59536ZM58.6117 0.686218C58.6925 0.87906 58.7141 1.07522 58.7141 1.23903V6.45285C58.7159 6.65164 58.679 6.8489 58.6053 7.03358C58.5307 7.2204 58.42 7.39068 58.2795 7.53463C58.139 7.67857 57.9715 7.79337 57.7865 7.87242C57.6015 7.95147 57.4028 7.99323 57.2016 7.9953L57.1973 7.99534H52.0463C51.7947 7.99534 51.1812 7.93067 50.9301 7.34359C50.6751 6.74713 51.0653 6.26059 51.2508 6.07636L56.8015 0.453945C56.8018 0.453653 56.8021 0.453362 56.8024 0.45307C56.9172 0.336368 57.0707 0.211379 57.2647 0.130893C57.4654 0.0476077 57.7552 -0.00314381 58.0584 0.122768C58.3607 0.248267 58.5287 0.48803 58.6117 0.686218Z" fill="white"/>
<path fill-rule="evenodd" clip-rule="evenodd" d="M59.119 17.2114L72.2756 4.87505L71.1304 3.65381L57.8237 16.131C57.6745 16.2672 57.555 16.4327 57.4728 16.6173C57.3892 16.8051 57.3459 17.0083 57.3459 17.2138C57.3459 17.4194 57.3892 17.6226 57.4728 17.8103C57.5561 17.9975 57.6778 18.1651 57.8299 18.3023C57.8304 18.3027 57.8309 18.3032 57.8313 18.3036L65.2429 25.0266L66.2635 25.954L72.4755 31.5996C72.6918 31.8 73.1724 32.1187 73.7319 31.8756C74.2966 31.6303 74.3888 31.0527 74.3888 30.7587V18.8246H72.7146V29.5547L67.3895 24.7151L66.3682 23.7871L59.119 17.2114ZM73.6147 30.3728C73.6164 30.3742 73.6165 30.3744 73.615 30.373L73.6147 30.3728Z" fill="white"/>
<path fill-rule="evenodd" clip-rule="evenodd" d="M57.885 1.73908L53.3826 6.28816L52.1927 5.1105L56.8046 0.450828C56.946 0.308362 57.1142 0.195282 57.2995 0.118114C57.4848 0.0409477 57.6835 0.0012207 57.8842 0.0012207C58.0849 0.0012207 58.2837 0.0409477 58.469 0.118114C58.6534 0.194903 58.8208 0.307251 58.9618 0.44873L65.9821 7.43795L64.8009 8.62436L57.885 1.73908Z" fill="white"/>
<path d="M47.8658 25.3535C47.8718 25.1651 47.9493 24.9861 48.0826 24.8528C48.2159 24.7195 48.3949 24.642 48.5833 24.636H48.7507C48.89 24.6363 49.0268 24.6726 49.1479 24.7413C49.2689 24.81 49.3702 24.9089 49.4419 25.0282L54.1151 32.0309L58.7788 25.0163C58.8494 24.8959 58.9504 24.7963 59.0718 24.7275C59.1931 24.6586 59.3304 24.6229 59.47 24.624H59.6374C59.8258 24.63 60.0048 24.7075 60.1381 24.8408C60.2714 24.9741 60.3489 25.1531 60.3548 25.3415V37.0748C60.3556 37.268 60.2811 37.4539 60.1472 37.5932C60.0133 37.7324 59.8305 37.8141 59.6374 37.821C59.4406 37.8173 59.2529 37.7375 59.1138 37.5983C58.9747 37.4592 58.8949 37.2715 58.8912 37.0748V27.3481L54.7106 33.4874C54.6501 33.5981 54.5613 33.691 54.4534 33.7565C54.3455 33.822 54.2222 33.8578 54.096 33.8605C53.9673 33.8576 53.8414 33.8218 53.7305 33.7565C53.6195 33.6912 53.5272 33.5985 53.4622 33.4874L49.3008 27.3672V37.1059C49.3008 37.2962 49.2252 37.4787 49.0907 37.6132C48.9561 37.7478 48.7736 37.8234 48.5833 37.8234C48.393 37.8234 48.2105 37.7478 48.076 37.6132C47.9414 37.4787 47.8658 37.2962 47.8658 37.1059V25.3535Z" fill="white"/>
<path d="M36.0416 25.399C36.0409 25.2058 36.1154 25.0199 36.2493 24.8806C36.3832 24.7414 36.566 24.6597 36.7591 24.6528H41.6476C43.2523 24.6528 44.539 25.1312 45.3594 25.9587C45.6882 26.3008 45.9464 26.7044 46.1191 27.1463C46.2919 27.5883 46.3759 28.06 46.3662 28.5344V28.5703C46.3662 30.7227 44.9121 31.9664 42.8793 32.3586L46.1247 36.5368C46.2704 36.6799 46.3559 36.8732 46.3638 37.0773C46.3532 37.2701 46.2707 37.452 46.1325 37.587C45.9944 37.722 45.8107 37.8004 45.6177 37.8067C45.4799 37.8011 45.3454 37.7625 45.2256 37.6943C45.1058 37.6261 45.004 37.5301 44.9289 37.4145L41.253 32.6313H37.5149V37.0533C37.5149 37.2487 37.4373 37.4361 37.2991 37.5742C37.161 37.7124 36.9736 37.79 36.7782 37.79C36.5829 37.79 36.3955 37.7124 36.2574 37.5742C36.1192 37.4361 36.0416 37.2487 36.0416 37.0533V25.399ZM41.5256 31.3135C43.4843 31.3135 44.8739 30.3066 44.8739 28.6277V28.5894C44.8739 26.9847 43.6422 26.0137 41.5256 26.0137H37.5149V31.3135H41.5256Z" fill="white"/>
<path d="M0.279874 35.9028C0.190581 35.84 0.118278 35.7559 0.069443 35.6583C0.0206078 35.5606 -0.00323351 35.4523 5.53566e-05 35.3432C5.53566e-05 35.1529 0.0756472 34.9704 0.210202 34.8359C0.344756 34.7013 0.527251 34.6257 0.717539 34.6257C0.882449 34.6228 1.04231 34.6826 1.16477 34.7931C2.28847 35.8141 3.76042 36.366 5.27835 36.3357C7.03379 36.3357 8.18894 35.403 8.18894 34.1163V34.078C8.18894 32.8655 7.53603 32.1647 4.79285 31.5979C1.79137 30.945 0.409021 29.974 0.409021 27.8287V27.7905C0.409021 25.7385 2.21947 24.227 4.69958 24.227C6.19199 24.178 7.65756 24.632 8.86098 25.516C8.95799 25.5826 9.03813 25.6709 9.09501 25.7738C9.15189 25.8768 9.18395 25.9916 9.18863 26.1092C9.18863 26.2995 9.11304 26.4819 8.97849 26.6165C8.84393 26.7511 8.66144 26.8266 8.47115 26.8266C8.31773 26.8321 8.16695 26.7858 8.04305 26.6951C7.07614 25.9491 5.8873 25.5484 4.66609 25.5567C2.96805 25.5567 1.88704 26.4894 1.88704 27.6661V27.702C1.88704 28.9337 2.55669 29.6153 5.43141 30.2395C8.30613 30.8637 9.6837 31.9375 9.6837 33.9345V33.9704C9.6837 36.209 7.81824 37.6654 5.22573 37.6654C3.42039 37.6822 1.66771 37.0576 0.279874 35.9028Z" fill="white"/>
<path d="M34.3627 36.6491L29.9024 25.0809C29.7613 24.6695 29.5102 24.428 29.1323 24.428H29.0701C28.6779 24.428 28.4411 24.6671 28.2833 25.0809L23.8229 36.6659C23.7704 36.7899 23.7436 36.9234 23.744 37.0581C23.7307 37.2222 23.7828 37.3849 23.889 37.5108C23.9952 37.6367 24.1468 37.7155 24.3108 37.7301C24.4189 37.7292 24.5246 37.698 24.6159 37.6401C24.7072 37.5822 24.7805 37.4999 24.8274 37.4025L29.0557 26.1045L29.7302 27.9078L31.598 32.8417H31.5765L32.0787 34.1858L33.2243 37.1896C33.2574 37.3322 33.3342 37.461 33.4439 37.5579C33.5537 37.6548 33.691 37.715 33.8366 37.7301C33.923 37.7223 34.007 37.6976 34.0838 37.6573C34.1606 37.617 34.2287 37.5619 34.2842 37.4953C34.3398 37.4287 34.3816 37.3517 34.4074 37.2689C34.4332 37.1861 34.4424 37.099 34.4345 37.0126C34.4308 36.8883 34.4066 36.7655 34.3627 36.6491Z" fill="white"/>
<path d="M33.8438 37.9453C33.4874 37.9453 33.1909 37.7061 33.0306 37.2637L31.2656 32.6263H31.2871L29.0558 26.7191L25.0139 37.5076C24.9486 37.6384 24.8483 37.7485 24.7242 37.8258C24.6001 37.903 24.457 37.9444 24.3108 37.9453C24.0906 37.9281 23.886 37.8249 23.7414 37.6579C23.5968 37.4909 23.5238 37.2736 23.5383 37.0532C23.5366 36.8889 23.5692 36.726 23.634 36.5749L28.0824 25.0043C28.2857 24.4709 28.6085 24.2126 29.0701 24.2126H29.1323C29.4504 24.2126 29.8785 24.3514 30.1057 25.0114L34.566 36.5749C34.6213 36.7178 34.652 36.869 34.6569 37.0221C34.6707 37.2522 34.5929 37.4784 34.4406 37.6513C34.2883 37.8242 34.0737 37.9299 33.8438 37.9453ZM32.2366 33.992L32.2868 34.1091L33.4324 37.113C33.4898 37.2637 33.6166 37.5148 33.8438 37.5148C33.9589 37.4981 34.0631 37.4375 34.1344 37.3456C34.2058 37.2538 34.2388 37.1378 34.2264 37.0221C34.2214 36.9196 34.1996 36.8186 34.1619 36.7232L29.7015 25.1597C29.5245 24.6431 29.2232 24.6431 29.1323 24.6431H29.0701C28.8788 24.6431 28.6588 24.7053 28.4842 25.1573L24.0166 36.7447C23.9731 36.8434 23.9511 36.9502 23.9521 37.058C23.9404 37.1648 23.9704 37.272 24.036 37.3571C24.1015 37.4423 24.1974 37.4988 24.3036 37.5148C24.371 37.5141 24.4367 37.4944 24.4934 37.458C24.5501 37.4216 24.5954 37.37 24.6241 37.3091L29.0486 25.4922L29.9239 27.8335L31.909 33.0568H31.885L32.2366 33.992Z" fill="white"/>
<path d="M23.6506 33.1214L21.2733 26.7693L20.6682 25.0043C20.6243 24.8387 20.5269 24.6923 20.391 24.5881C20.2551 24.4838 20.0885 24.4275 19.9173 24.4279H19.8192C19.6472 24.4245 19.4792 24.4797 19.3427 24.5845C19.2062 24.6892 19.1094 24.8372 19.0682 25.0043L15.543 35.3623L11.8193 25.0401C11.7682 24.8679 11.6643 24.7162 11.5222 24.6063C11.3801 24.4964 11.2071 24.434 11.0276 24.4279C10.826 24.4275 10.6318 24.5044 10.485 24.6428C10.3383 24.7811 10.25 24.9703 10.2384 25.1717C10.2456 25.2859 10.2714 25.3982 10.3149 25.5041L14.6366 37.0532C14.68 37.2313 14.7813 37.3898 14.9245 37.5041C15.0678 37.6184 15.245 37.6819 15.4282 37.6846H15.543C15.7252 37.678 15.9004 37.613 16.0429 37.4994C16.1854 37.3857 16.2876 37.2293 16.3346 37.0532L19.824 27.0634L20.9433 30.2515L22.1391 33.5854C22.1905 33.7574 22.2945 33.9089 22.4365 34.0188C22.5784 34.1286 22.7513 34.1911 22.9307 34.1976C23.132 34.198 23.3258 34.1214 23.4725 33.9836C23.6192 33.8458 23.7077 33.6571 23.7199 33.4562C23.715 33.3416 23.6916 33.2285 23.6506 33.1214Z" fill="white"/>
<path d="M83.2234 24.7532H83.5797L88.9083 37.1226H88.9585L94.2344 24.7317H94.5883L94.617 37.7205H94.2129L94.1865 26.0016H94.1363L89.1379 37.7325H88.7337L83.685 26.0136H83.6324L83.6587 37.7325H83.2521L83.2234 24.7532Z" fill="white" stroke="white" stroke-miterlimit="10"/>
<path d="M100.876 37.7016H100.445L105.059 24.7031H105.616L110.287 37.68H109.856L105.365 25.2078H105.312L100.876 37.7016ZM102.337 32.904L108.374 32.8896V33.2962L102.335 33.3105L102.337 32.904Z" fill="white" stroke="white" stroke-miterlimit="10"/>
<path d="M116.115 37.6681L116.094 24.6792H119.899C120.571 24.6643 121.237 24.8215 121.831 25.136C122.383 25.436 122.841 25.883 123.154 26.4275C123.469 27.0255 123.633 27.6912 123.633 28.3671C123.633 29.043 123.469 29.7087 123.154 30.3067C122.844 30.8509 122.389 31.2975 121.838 31.5957C121.245 31.9118 120.581 32.0715 119.908 32.0597H116.307V31.6531H119.911C120.51 31.6655 121.103 31.5247 121.633 31.2442C122.124 30.9816 122.53 30.5852 122.805 30.101C123.096 29.5732 123.242 28.977 123.226 28.3742C123.238 27.7679 123.091 27.1689 122.797 26.6379C122.522 26.1516 122.114 25.7536 121.621 25.49C121.09 25.2104 120.496 25.0705 119.896 25.0834H116.496L116.524 37.6657L116.115 37.6681ZM121.049 31.7464L124.259 37.6489H123.802L120.592 31.744L121.049 31.7464Z" fill="white" stroke="white" stroke-miterlimit="10"/>
<path d="M130.314 37.6369L130.286 24.6481H130.683L130.7 32.7389H130.75L138.097 24.6313H138.654L132.936 30.9356L138.606 37.6322H138.075L132.656 31.2537L130.709 33.4062V37.6417L130.314 37.6369Z" fill="white" stroke="white" stroke-miterlimit="10"/>
<path d="M144.537 37.6033L144.509 24.6168L151.444 24.6001V25.0067L144.925 25.021L144.939 30.9068L151.078 30.8924V31.299L144.939 31.3134L144.953 37.1967L151.65 37.1824V37.589L144.537 37.6033Z" fill="white" stroke="white" stroke-miterlimit="10"/>
<path d="M157.213 24.9948V24.5882L165.99 24.5691V24.9757H161.805L161.831 37.5579H161.427L161.398 24.9757L157.213 24.9948Z" fill="white" stroke="white" stroke-miterlimit="10"/>
<path d="M179.282 27.7858C179.241 26.9511 178.874 26.1661 178.259 25.5999C177.642 25.0307 176.83 24.7477 175.824 24.7509C175.213 24.7409 174.609 24.8718 174.057 25.1335C173.562 25.3683 173.138 25.7297 172.827 26.1811C172.527 26.6298 172.371 27.1597 172.38 27.6997C172.379 28.012 172.436 28.3218 172.548 28.6133C172.663 28.8994 172.836 29.1589 173.055 29.3763C173.307 29.625 173.596 29.8338 173.911 29.9957C174.299 30.194 174.706 30.3542 175.126 30.474L176.599 30.9284C177.102 31.0774 177.591 31.2711 178.06 31.5072C178.433 31.6949 178.777 31.9366 179.079 32.2247C179.338 32.4789 179.542 32.7833 179.679 33.1191C179.815 33.4674 179.883 33.8383 179.88 34.2121C179.891 34.8526 179.711 35.4818 179.364 36.0202C179.004 36.5605 178.503 36.9915 177.914 37.2662C177.247 37.5581 176.528 37.7126 175.8 37.7204C175.072 37.7282 174.35 37.5892 173.676 37.3116C173.115 37.06 172.63 36.6649 172.27 36.166C171.923 35.6737 171.721 35.0936 171.687 34.4919H172.091C172.126 35.0239 172.31 35.5353 172.622 35.9675C172.945 36.407 173.381 36.7521 173.882 36.9672C174.472 37.218 175.109 37.3403 175.75 37.326C176.423 37.3385 177.091 37.2038 177.706 36.9314C178.235 36.6974 178.686 36.3194 179.01 35.8408C179.324 35.3601 179.486 34.7958 179.474 34.2217C179.481 33.7926 179.375 33.3692 179.165 32.9948C178.928 32.6098 178.599 32.2894 178.209 32.062C177.672 31.7509 177.098 31.5098 176.501 31.3446L175.028 30.8902C174.009 30.5713 173.246 30.148 172.739 29.6202C172.492 29.3673 172.298 29.068 172.167 28.7396C172.037 28.4112 171.973 28.0603 171.978 27.7069C171.967 27.0982 172.141 26.5004 172.476 25.9921C172.818 25.4782 173.291 25.0652 173.846 24.7963C174.462 24.4932 175.141 24.3415 175.827 24.3539C176.507 24.3365 177.18 24.4877 177.788 24.7939C178.335 25.0741 178.797 25.4952 179.127 26.0137C179.464 26.5493 179.658 27.163 179.689 27.7954L179.282 27.7858Z" fill="white" stroke="white" stroke-miterlimit="10"/>
</g>
<defs>
<clipPath id="clip0">
<rect width="180" height="37.9453" fill="white"/>
</clipPath>
</defs>
</svg>
