<svg width="43" height="32" viewBox="0 0 43 32" fill="none" xmlns="http://www.w3.org/2000/svg">
<path fill-rule="evenodd" clip-rule="evenodd" d="M7.87274 2.57368L14.5264 9.20434C14.8113 9.48793 15.195 9.65012 15.5969 9.65688C15.9986 9.66364 16.3872 9.51467 16.6814 9.24123C16.6816 9.24103 16.6818 9.24082 16.6821 9.24062L22.752 3.61904C22.9419 3.4624 23.1754 3.36832 23.4207 3.34959L39.876 3.3931L15.4764 23.7595L8.12837 17.0791C7.97952 16.9211 7.88928 16.7168 7.87274 16.5004V2.57368ZM41.4978 3.39774C41.4978 3.39779 41.4963 3.39774 41.4936 3.39745C41.4965 3.39755 41.4979 3.3977 41.4978 3.39774ZM41.1185 2.35545C41.1186 2.35545 41.1176 2.35644 41.1155 2.35837C41.1174 2.35641 41.1185 2.35545 41.1185 2.35545ZM8.11243 0.449059C7.9293 0.258795 7.44605 -0.137 6.84633 0.12178C6.55136 0.249061 6.38596 0.484785 6.30303 0.681061C6.22164 0.873672 6.19861 1.0704 6.19861 1.23773V16.5506L6.1999 16.5739C6.23534 17.2103 6.50126 17.812 6.948 18.2667L6.96453 18.2836L14.3869 25.0316L14.3948 25.0384C14.6852 25.2896 15.0539 25.4317 15.4377 25.4406C15.8216 25.4494 16.1965 25.3244 16.4981 25.0869L16.5075 25.0795L42.1835 3.64775L42.184 3.64732C42.305 3.54619 42.4405 3.40775 42.5371 3.22686C42.6346 3.04412 42.7272 2.74339 42.6068 2.40821C42.486 2.07219 42.2222 1.89886 42.0289 1.82018C41.8386 1.74275 41.6457 1.72333 41.4881 1.72322C41.4877 1.72322 41.4873 1.72322 41.4869 1.72322L23.3712 1.67533L23.346 1.67679C22.7246 1.71273 22.1319 1.94983 21.6572 2.3523L21.6432 2.36417L15.6261 7.93675L8.11243 0.449059Z" fill="white"/>
<path fill-rule="evenodd" clip-rule="evenodd" d="M6.19376 2.59408V6.31993H2.51542L6.19376 2.59408ZM7.7655 0.684936C7.84627 0.877779 7.86789 1.07394 7.86789 1.23775V6.45157C7.86975 6.65036 7.83281 6.84762 7.75911 7.0323C7.68455 7.21912 7.57384 7.38939 7.43333 7.53334C7.29282 7.67729 7.12528 7.79208 6.94031 7.87114C6.75534 7.95019 6.55658 7.99195 6.35543 7.99402L6.35113 7.99406H1.20007C0.94847 7.99406 0.334974 7.92939 0.0839367 7.34231C-0.17111 6.74585 0.219112 6.25931 0.404622 6.07507L5.95535 0.452663C5.95564 0.452372 5.95592 0.45208 5.95621 0.451789C6.071 0.335086 6.22447 0.210097 6.41847 0.129611C6.61922 0.046326 6.90898 -0.00442555 7.21221 0.121486C7.51446 0.246986 7.68249 0.486748 7.7655 0.684936Z" fill="white"/>
<path fill-rule="evenodd" clip-rule="evenodd" d="M8.27281 17.2101L21.4294 4.87377L20.2843 3.65253L6.97748 16.1297C6.82828 16.2659 6.70881 16.4315 6.62659 16.616C6.54297 16.8038 6.49976 17.007 6.49976 17.2125C6.49976 17.4181 6.54297 17.6213 6.62659 17.809C6.70995 17.9962 6.83161 18.1638 6.98372 18.301C6.9842 18.3015 6.98468 18.3019 6.98516 18.3023L14.3967 25.0253L15.4173 25.9527L21.6293 31.5983C21.8456 31.7988 22.3262 32.1175 22.8857 31.8743C23.4504 31.629 23.5426 31.0514 23.5426 30.7574V18.8233H21.8685V29.5534L16.5433 24.7138L15.522 23.7858L8.27281 17.2101ZM22.7685 30.3715C22.7702 30.3729 22.7703 30.3731 22.7688 30.3718L22.7685 30.3715Z" fill="white"/>
<path fill-rule="evenodd" clip-rule="evenodd" d="M7.03882 1.73786L2.53644 6.28694L1.34656 5.10928L5.95839 0.449607C6.09977 0.307141 6.26796 0.194062 6.45327 0.116893C6.63856 0.039727 6.8373 0 7.03802 0C7.23874 0 7.43748 0.039727 7.62278 0.116893C7.80718 0.193682 7.97462 0.306031 8.11558 0.447509L15.1359 7.43673L13.9547 8.62314L7.03882 1.73786Z" fill="white"/>
</svg>
