<svg width="32" height="32" viewBox="0 0 32 32" fill="none" xmlns="http://www.w3.org/2000/svg">
<path d="M0 0V32H32V0H0ZM25.3673 11.5116C25.3746 11.6995 25.3786 11.8881 25.3786 12.0781C25.3786 19.6853 19.2114 25.8532 11.6035 25.8532C8.89535 25.8532 6.36916 25.0716 4.23948 23.7209C4.23899 23.7208 4.2385 23.7207 4.23808 23.7207L4.23948 23.7209C8.40285 24.3418 11.3356 21.6924 11.3356 21.6924C7.6259 21.4039 6.89291 18.3166 6.89291 18.3166C8.20365 18.5385 9.02525 18.2273 9.02525 18.2273C4.84981 17.2505 5.20497 13.4295 5.20497 13.4295C6.17185 14.0072 7.29272 14.0519 7.29272 14.0519C3.60571 10.8087 5.91598 7.65476 5.91598 7.65476C9.78156 12.336 15.4637 12.6545 15.8369 12.6699C15.7549 12.318 15.7116 11.9515 15.7116 11.575C15.7116 8.90694 17.8752 6.74391 20.5454 6.74391C21.9374 6.74391 23.1915 7.33162 24.0738 8.27323C24.3183 8.20463 24.5555 8.13062 24.7821 8.05535C26.1509 7.59887 27.1284 7.07709 27.1284 7.07709C26.8926 8.49048 25.15 9.67659 25.0254 9.75986C25.0207 9.76316 25.0181 9.7645 25.0181 9.7645C25.0207 9.7645 25.024 9.76387 25.0267 9.76387C26.3794 9.62856 27.7615 9.05418 27.7615 9.05418C27.3444 9.93098 25.6425 11.295 25.3673 11.5116Z" fill="white"/>
</svg>
