<svg width="50" height="50" viewBox="0 0 100 100" fill="none"
  xmlns="http://www.w3.org/2000/svg">
  <circle cx="50" cy="50" r="50" fill="white"/>
  <circle cx="50" cy="50" r="50" fill="#0179F1"/>
  <path d="M33.6838 32.2258C33.3061 31.848 32.9958 31.9796 32.9958 32.5124V54.0701L45.7547 42.9775C45.3615 43.2965 44.7673 43.2721 44.4054 42.9102L33.6838 32.2258Z" fill="white"/>
  <path d="M33.6838 32.2258C33.3061 31.848 32.9958 31.9796 32.9958 32.5124V54.0701L45.7547 42.9775C45.3615 43.2965 44.7673 43.2721 44.4054 42.9102L33.6838 32.2258Z" fill="#0179F1"/>
  <path d="M45.805 42.9338L54.3815 34.9845C54.7728 34.6203 55.5316 34.3235 56.0645 34.3269L81.5782 34.3943C82.1111 34.3943 82.2157 34.6776 81.8042 35.0183L45.6229 65.2166C45.2114 65.5572 44.5537 65.5437 44.1592 65.1863L33.7142 55.6957C33.3196 55.3349 32.9958 54.6064 32.9958 54.0701M45.805 42.9338L45.7547 42.9775M45.805 42.9338C45.7886 42.949 45.7718 42.9636 45.7547 42.9775M32.9958 54.0701V32.5124C32.9958 31.9796 33.3061 31.848 33.6838 32.2258L44.4054 42.9102C44.7673 43.2721 45.3615 43.2965 45.7547 42.9775M32.9958 54.0701L45.7547 42.9775" stroke="white" stroke-width="3.2" stroke-miterlimit="10"/>
  <path d="M24.7585 40.8426C24.2256 40.8426 24.0941 40.5323 24.4718 40.1512L32.3064 32.2323C32.6808 31.8512 32.9911 31.9793 32.9911 32.5122V39.8712C32.9911 40.4041 32.5526 40.8426 32.0197 40.8426H24.7585Z" stroke="white" stroke-width="3.2" stroke-miterlimit="10"/>
  <path d="M55.1011 74.1383V57.309L44.9098 65.8526C45.1645 66.0842 45.4177 66.3145 45.6106 66.4892L54.3827 74.4553C54.7773 74.8162 55.1011 74.6711 55.1011 74.1383Z" fill="white"/>
  <path d="M55.1011 74.1383V57.309L44.9098 65.8526C45.1645 66.0842 45.4177 66.3145 45.6106 66.4892L54.3827 74.4553C54.7773 74.8162 55.1011 74.6711 55.1011 74.1383Z" fill="#0179F1"/>
  <path d="M44.1738 65.184C44.3756 65.3668 44.6435 65.6104 44.9098 65.8526M44.9098 65.8526C45.1645 66.0842 45.4177 66.3145 45.6106 66.4892L54.3827 74.4553C54.7773 74.8162 55.1011 74.6711 55.1011 74.1383V57.309L44.9098 65.8526Z" stroke="white" stroke-width="3.2" stroke-miterlimit="10"/>
  <path d="M25.8105 38.8058L32.3129 32.2325C32.6873 31.8514 33.3045 31.8514 33.6856 32.2292L43.5876 42.094" stroke="white" stroke-width="3.2" stroke-miterlimit="10"/>
</svg>
