<?xml version="1.0" encoding="UTF-8" standalone="no"?>
<svg
   xmlns:dc="http://purl.org/dc/elements/1.1/"
   xmlns:cc="http://creativecommons.org/ns#"
   xmlns:rdf="http://www.w3.org/1999/02/22-rdf-syntax-ns#"
   xmlns:svg="http://www.w3.org/2000/svg"
   xmlns="http://www.w3.org/2000/svg"
   viewBox="0 0 426.66666 426.66666"
   height="426.66666"
   width="426.66666"
   xml:space="preserve"
   id="svg2"
   version="1.1"><metadata
     id="metadata8"><rdf:RDF><cc:Work
         rdf:about=""><dc:format>image/svg+xml</dc:format><dc:type
           rdf:resource="http://purl.org/dc/dcmitype/StillImage" /></cc:Work></rdf:RDF></metadata><defs
     id="defs6"><clipPath
       id="clipPath18"
       clipPathUnits="userSpaceOnUse"><path
         id="path16"
         d="M 0,320 H 320 V 0 H 0 Z" /></clipPath></defs><g
     transform="matrix(1.3333333,0,0,-1.3333333,0,426.66667)"
     id="g10"><g
       id="g12"><g
         clip-path="url(#clipPath18)"
         id="g14"><g
           transform="translate(307,160)"
           id="g20"><path
             id="path22"
             style="fill:#0179ef;fill-opacity:1;fill-rule:nonzero;stroke:none"
             d="m 0,0 c 0,-81.738 -66.262,-148 -148,-148 -81.738,0 -148,66.262 -148,148 0,81.738 66.262,148 148,148 C -66.262,148 0,81.738 0,0" /></g><g
           transform="translate(284.3552,159.1913)"
           id="g24"><path
             id="path26"
             style="fill:none;stroke:#ffffff;stroke-width:8;stroke-linecap:round;stroke-linejoin:miter;stroke-miterlimit:10;stroke-dasharray:104.344, 52.172;stroke-dashoffset:0;stroke-opacity:1"
             d="m 0,0 c 0,-68.785 -55.761,-124.546 -124.546,-124.546 -68.786,0 -124.547,55.761 -124.547,124.546 0,68.785 55.761,124.546 124.547,124.546 C -55.761,124.546 0,68.785 0,0 Z" /></g><g
           transform="translate(102.1682,205.5)"
           id="g28"><path
             id="path30"
             style="fill:none;stroke:#ffffff;stroke-width:7;stroke-linecap:butt;stroke-linejoin:miter;stroke-miterlimit:10;stroke-dasharray:none;stroke-opacity:1"
             d="m 0,0 c 0,1.725 0.92,2.115 2.04,0.995 l 31.79,-31.68 c 1.12,-1.12 2.99,-1.15 4.15,-0.07 l 25.42,23.58 c 1.16,1.08 3.41,1.96 4.99,2.175 h 75.65 c 1.58,-0.425 1.89,-1.265 0.67,-2.275 L 37.43,-96.815 c -1.22,-1.01 -3.17,-0.97 -4.34,0.09 l -30.97,28.13 c -1.17,1.07 -2.13,3.23 -1.788,4.82 L 0.332,0 Z" /></g><g
           transform="translate(77.5,180.49)"
           id="g32"><path
             id="path34"
             style="fill:none;stroke:#ffffff;stroke-width:7;stroke-linecap:butt;stroke-linejoin:miter;stroke-miterlimit:10;stroke-dasharray:none;stroke-opacity:1"
             d="m 0,0 c -1.553,0 -1.937,0.92 -0.836,2.05 l 22.84,23.49 C 23.095,26.67 24,26.29 24,24.71 V 2.89 C 24,1.306 22.704,0.01 21.12,0.01 H 0 Z" /></g><g
           transform="translate(167.5,132)"
           id="g36"><path
             id="path38"
             style="fill:none;stroke:#ffffff;stroke-width:7;stroke-linecap:butt;stroke-linejoin:miter;stroke-miterlimit:10;stroke-dasharray:none;stroke-opacity:1"
             d="m 0,0 v -49.785 c 0,-1.58 -0.96,-2.01 -2.13,-0.94 l -26.01,23.62 c -1.17,1.06 -3.09,2.81 -4.26,3.87 l -30.98,28.13 c -1.17,1.06 -1.19,2.82 -0.03,3.91 l 55.66,52.19" /></g><g
           transform="translate(80.8682,186.9946)"
           id="g40"><path
             id="path42"
             style="fill:none;stroke:#ffffff;stroke-width:7;stroke-linecap:butt;stroke-linejoin:miter;stroke-miterlimit:10;stroke-dasharray:none;stroke-opacity:1"
             d="m 0,0 19.27,19.49 c 1.11,1.13 2.94,1.13 4.07,0.01 L 52.7,-9.75" /></g></g></g></g></svg>