<?xml version="1.0" encoding="utf-8"?>
<svg viewBox="0 4.691 38.42 30.667" fill="white" xmlns="http://www.w3.org/2000/svg">
  <path d="M 7.698 8.261 C 6.031 8.261 4.657 9.635 4.657 11.302 L 4.657 30.569 C 4.657 32.049 5.88 33.272 7.359 33.272 L 31.019 33.272 C 32.501 33.272 33.724 32.049 33.724 30.569 L 33.724 15.02 C 33.724 13.539 32.501 12.316 31.019 12.316 L 29.668 12.316 L 29.668 9.274 C 29.668 8.745 29.184 8.261 28.655 8.261 L 7.698 8.261 Z M 7.698 10.288 L 27.64 10.288 L 27.64 12.316 L 7.698 12.316 C 7.119 12.316 6.684 11.881 6.684 11.302 C 6.684 10.722 7.119 10.288 7.698 10.288 Z M 6.684 14.165 C 7.002 14.278 7.343 14.343 7.698 14.343 L 31.019 14.343 C 31.413 14.343 31.696 14.63 31.696 15.02 L 31.696 18.062 L 22.908 18.062 C 21.802 18.062 20.881 18.985 20.881 20.089 L 20.881 25.499 C 20.881 26.604 21.802 27.526 22.908 27.526 L 31.696 27.526 L 31.696 30.569 C 31.696 30.96 31.413 31.245 31.019 31.245 L 7.359 31.245 C 6.969 31.245 6.684 30.96 6.684 30.569 L 6.684 14.165 Z M 22.908 20.089 L 31.696 20.089 L 31.696 25.499 L 22.908 25.499 L 22.908 20.089 Z M 25.613 21.444 C 24.865 21.444 24.26 22.047 24.26 22.794 C 24.26 23.54 24.865 24.146 25.613 24.146 C 26.358 24.146 26.963 23.54 26.963 22.794 C 26.963 22.047 26.358 21.444 25.613 21.444 Z" style=""/>
</svg>