<svg viewBox="0 0 40 40" fill="#ffffff" xmlns="http://www.w3.org/2000/svg">
<path d="M8.13953 6.5C6.41834 6.5 5 7.91834 5 9.63954V29.5233C5 31.0512 6.26276 32.314 7.7907 32.314H32.2093C33.7372 32.314 35 31.0512 35 29.5233V13.4767C35 11.9488 33.7372 10.686 32.2093 10.686H30.814V7.54651C30.8139 6.99856 30.3154 6.50007 29.7674 6.5H8.13953ZM8.13953 8.59302H28.7209V10.686H8.13953C7.54166 10.686 7.09302 10.2374 7.09302 9.63954C7.09302 9.04166 7.54166 8.59302 8.13953 8.59302ZM7.09302 12.5938C7.42124 12.7116 7.77308 12.7791 8.13953 12.7791H32.2093C32.6139 12.7791 32.907 13.0721 32.907 13.4767V16.6163H23.8372C22.6958 16.6163 21.7442 17.5679 21.7442 18.7093V24.2907C21.7442 25.4321 22.6958 26.3837 23.8372 26.3837H32.907V29.5233C32.907 29.9279 32.6139 30.2209 32.2093 30.2209H7.7907C7.38608 30.2209 7.09302 29.9279 7.09302 29.5233V12.5938ZM23.8372 18.7093H32.907V24.2907H23.8372V18.7093ZM26.6279 20.1046C25.8573 20.1046 25.2326 20.7294 25.2326 21.5C25.2326 22.2706 25.8573 22.8953 26.6279 22.8953C27.3985 22.8953 28.0233 22.2706 28.0233 21.5C28.0233 20.7294 27.3985 20.1046 26.6279 20.1046Z"/>
<rect y="19" width="16" height="16" rx="8"/>
<path d="M6.2501 29.4324L3.8176 26.9999L2.99219 27.8253L6.2501 31.0832L13.2501 24.0832L12.4247 23.2578L6.2501 29.4324Z" fill="white"/>
</svg>
