<svg width="200" height="66" viewBox="0 0 200 66" fill="none" xmlns="http://www.w3.org/2000/svg">
<circle cx="65" cy="33" r="6" fill="#0179EF"/>
<circle cx="135" cy="33" r="6" fill="#0179EF"/>
<path d="M66 34H135" stroke="#0179EF" stroke-width="2" stroke-dasharray="4 4"/>
<path d="M184.792 65H149.208C141.387 65 135 58.5869 135 50.7342V15.2658C135 7.41308 141.387 1 149.208 1H184.792C192.613 1 199 7.41308 199 15.2658V50.7342C199 58.5869 192.613 65 184.792 65Z" fill="white" stroke="#0179EF" stroke-width="2" stroke-miterlimit="10"/>
<path d="M50.7923 65H15.2077C7.38696 65 1 58.5869 1 50.7342V15.2658C1 7.41308 7.38696 1 15.2077 1H50.7923C58.613 1 65 7.41308 65 15.2658V50.7342C65 58.5869 58.613 65 50.7923 65Z" fill="white" stroke="#0179EF" stroke-width="2" stroke-miterlimit="10"/>
<path d="M149.865 47.5297C149.602 47.5297 149.339 47.5297 149.076 47.3982C148.682 47.1352 148.419 46.6093 148.55 46.0833C148.682 45.5574 149.076 45.1629 149.734 45.1629C150.128 45.1629 150.391 45.1629 150.786 45.1629H151.969V31.6197H151.443C150.654 31.6197 150.128 31.0938 150.128 30.4363C150.128 30.1733 150.26 29.7789 150.391 29.6474C150.654 29.3844 150.917 29.2529 151.312 29.2529H153.021C153.678 29.2529 154.204 29.2529 154.862 29.2529C155.519 29.2529 156.045 29.7789 156.045 30.4363C156.045 31.0938 155.519 31.6197 154.862 31.6197H154.336V45.1629H161.305V31.6197H160.779C160.121 31.6197 159.595 31.0938 159.595 30.4363C159.595 29.7789 160.121 29.2529 160.779 29.2529H162.488C163.014 29.2529 163.671 29.2529 164.197 29.2529C164.855 29.2529 165.381 29.7789 165.381 30.4363C165.381 31.0938 164.855 31.6197 164.197 31.6197C164.066 31.6197 163.934 31.6197 163.934 31.6197H163.671V45.1629H170.64V31.6197H170.114C169.457 31.6197 168.931 31.0938 168.931 30.4363C168.931 30.1733 169.062 29.7789 169.194 29.6474C169.457 29.3844 169.72 29.2529 170.114 29.2529C170.64 29.2529 171.298 29.2529 171.824 29.2529C172.35 29.2529 173.007 29.2529 173.533 29.2529C174.19 29.2529 174.716 29.7789 174.716 30.4363C174.716 31.0938 174.19 31.6197 173.401 31.6197H172.875V45.1629H179.844V31.6197H179.318C178.661 31.6197 178.135 31.0938 178.135 30.4363C178.135 30.0419 178.266 29.7789 178.398 29.6474C178.661 29.3844 178.924 29.2529 179.318 29.2529C179.844 29.2529 180.502 29.2529 181.028 29.2529C181.554 29.2529 182.211 29.2529 182.737 29.2529C183.132 29.2529 183.394 29.3844 183.657 29.6474C183.92 29.9104 183.92 30.1733 183.92 30.4363C183.92 31.0938 183.394 31.6197 182.737 31.6197H182.211V45.1629H183.394C183.789 45.1629 184.052 45.1629 184.446 45.1629C184.709 45.1629 185.104 45.2944 185.235 45.5574C185.498 45.8203 185.498 46.0833 185.498 46.3463C185.498 47.0037 184.972 47.5297 184.315 47.5297H154.336C152.758 47.5297 151.312 47.5297 149.865 47.5297Z" fill="#037FEE" stroke="#0179EF" stroke-width="0.25" stroke-miterlimit="10"/>
<path d="M147.893 27.6747C147.236 27.6747 146.841 27.4117 146.578 26.7543C146.447 26.2283 146.71 25.7024 147.236 25.4394C148.419 24.782 149.602 24.1245 150.654 23.3356L166.301 14.1315C166.564 14 166.696 14 166.959 14C167.222 14 167.353 14 167.616 14.1315L169.588 15.3149C170.64 15.9723 171.561 16.4983 172.613 17.1557C173.139 17.4187 173.665 17.8131 174.059 18.0761C174.585 18.4706 175.242 18.7336 175.768 19.128C176.952 19.7854 178.004 20.4429 179.187 21.1003C180.107 21.6263 180.896 22.0207 181.685 22.5467C182.869 23.2041 184.184 23.993 185.367 24.782L186.419 25.4394C186.945 25.8339 187.208 26.2283 187.076 26.8858C186.945 27.2802 186.682 27.8062 185.761 27.8062H166.696H147.893V27.6747ZM181.817 25.3079L177.872 22.9411C176.82 22.2837 175.768 21.7578 174.848 21.1003C174.585 20.9688 174.322 20.7059 174.059 20.5744C173.796 20.4429 173.533 20.1799 173.139 20.0484C172.876 19.9169 172.481 19.654 172.218 19.5225C171.955 19.391 171.692 19.2595 171.429 18.9965C169.983 18.2076 168.537 17.2872 167.09 16.4983C166.959 16.4983 166.959 16.4983 166.959 16.4983C166.959 16.4983 166.959 16.4983 166.827 16.4983C166.696 16.6298 166.564 16.6297 166.564 16.6297C166.564 16.6297 166.433 16.6297 166.433 16.7612L156.966 22.2837L152.101 25.1764L181.817 25.3079Z" fill="#027EEE" stroke="#0179EF" stroke-width="0.25" stroke-miterlimit="10"/>
<path d="M186.419 52.0001H146.446C146.315 52.0001 146.315 52.0001 146.183 52.0001C145.526 52.0001 145 51.4741 145 50.8167C145 50.5537 145.131 50.1593 145.394 50.0278C145.657 49.7648 145.92 49.6333 146.183 49.6333C146.709 49.6333 147.367 49.6333 147.893 49.6333H159.332C168.668 49.6333 178.003 49.6333 187.339 49.6333C187.733 49.6333 188.259 49.7648 188.654 50.1593C188.917 50.5537 188.917 50.9482 188.654 51.3426C188.522 51.7371 188.128 52.0001 187.602 52.0001C187.47 52.0001 187.339 52.0001 187.076 52.0001H186.419Z" fill="#007EEE" stroke="#0179EF" stroke-width="0.25" stroke-miterlimit="10"/>
<path fill-rule="evenodd" clip-rule="evenodd" d="M16.5289 11.6851C16.1832 11.6851 15.8455 11.8074 15.5915 12.0344C15.3362 12.2625 15.185 12.5799 15.185 12.9194V53.0807C15.185 53.4203 15.3362 53.7376 15.5915 53.9657C15.8455 54.1927 16.1832 54.3151 16.5289 54.3151H44.642C46.1966 54.3137 47.6932 53.7617 48.802 52.771C49.912 51.7792 50.5442 50.4261 50.5457 49.0065V16.9933C50.5442 15.5737 49.912 14.2209 48.802 13.2291C47.6932 12.2384 46.1963 11.6864 44.6417 11.6851H16.5289ZM17.8783 51.8463V14.1538H44.6417C45.5054 14.1538 46.3276 14.4606 46.9287 14.9977C47.5286 15.5337 47.8578 16.2526 47.8578 16.9936V49.0065C47.8578 49.7475 47.5286 50.4664 46.9287 51.0024C46.3276 51.5395 45.5054 51.8463 44.6417 51.8463H17.8783Z" fill="#0179EF"/>
<path d="M32.4902 40.3271C38.2956 40.3271 43.0188 35.6035 43.0188 29.7981C43.0188 23.9927 38.2956 19.269 32.4902 19.269C26.6847 19.269 21.9615 23.9927 21.9615 29.7981C21.9615 35.6035 26.6847 40.3271 32.4902 40.3271ZM32.4925 38.577C32.4923 38.577 32.4922 38.577 32.492 38.577C32.092 38.5144 31.3282 37.0621 30.8787 34.3876H34.1013C33.6522 37.0619 32.8892 38.5143 32.4925 38.577ZM40.8138 27.0275C41.4336 28.8844 41.4209 30.8273 40.7708 32.6857C40.4376 32.5897 40.9376 32.6648 36.0833 32.6376C36.2391 30.8701 36.2522 28.9875 36.0924 27.0843C40.8307 27.0576 40.4916 27.1382 40.8138 27.0275ZM40.0358 25.3343H35.8901C35.6625 23.801 35.3096 22.4073 34.8218 21.3432C37.0318 21.9537 38.8903 23.4053 40.0358 25.3343ZM35.8726 34.3876H39.9594C38.8084 36.2539 36.9835 37.6558 34.8218 38.253C35.2963 37.2177 35.6444 35.8718 35.8726 34.3876ZM32.4878 21.0191C32.488 21.0191 32.4881 21.0191 32.4883 21.0191C32.8943 21.0827 33.6765 22.5779 34.1229 25.3343H30.8569C31.3029 22.5781 32.0844 21.0828 32.4878 21.0191ZM30.6418 27.0843H34.3381C34.5036 28.943 34.4911 30.8976 34.3282 32.6376H30.6517C30.4867 30.8776 30.4781 28.9195 30.6418 27.0843ZM30.1583 21.3433C29.6705 22.4074 29.3175 23.8011 29.0897 25.3343H24.9445C26.09 23.4055 27.9484 21.9539 30.1583 21.3433ZM24.2095 32.6856C23.5577 30.8219 23.5483 28.8804 24.1665 27.0276C24.4874 27.1379 24.2058 27.058 28.8873 27.0843C28.729 28.9703 28.7395 30.8542 28.8965 32.6376C24.0524 32.6646 24.5437 32.5891 24.2095 32.6856ZM29.1073 34.3876C29.3355 35.8718 29.6836 37.2176 30.1583 38.2529C27.9967 37.6557 26.1718 36.2538 25.0209 34.3876H29.1073Z" fill="#0179EF"/>
<path d="M41.0522 44.3657H23.6376C22.4802 44.3657 22.4793 46.1157 23.6376 46.1157H41.0522C42.2096 46.1157 42.2105 44.3657 41.0522 44.3657Z" fill="#0179EF"/>
</svg>
