<svg width="200" height="66" viewBox="0 0 200 66" fill="none" xmlns="http://www.w3.org/2000/svg">
<circle cx="65" cy="33" r="6" fill="#0179EF"/>
<circle cx="135" cy="33" r="6" fill="#0179EF"/>
<path d="M66 34H135" stroke="#0179EF" stroke-width="2" stroke-dasharray="4 4"/>
<path d="M184.792 65H149.208C141.387 65 135 58.5869 135 50.7342V15.2658C135 7.41308 141.387 1 149.208 1H184.792C192.613 1 199 7.41308 199 15.2658V50.7342C199 58.5869 192.613 65 184.792 65Z" fill="white" stroke="#0179EF" stroke-width="2" stroke-miterlimit="10"/>
<path d="M186.557 52.6094C173.748 52.6094 160.939 52.6094 148 52.6094C148 39.7832 148 26.9571 148 14C160.809 14 173.617 14 186.557 14C186.557 26.8262 186.557 39.6524 186.557 52.6094ZM169.304 23.6851C173.748 25.1248 176.754 27.8732 177.015 32.7158C177.277 38.0818 174.401 41.3538 169.435 42.9244C169.435 44.8875 169.435 46.7198 169.435 48.683C173.879 48.683 178.322 48.683 182.766 48.683C182.766 38.3436 182.766 28.135 182.766 17.9264C178.192 17.9264 173.879 17.9264 169.304 17.9264C169.304 19.8896 169.304 21.7219 169.304 23.6851ZM165.514 42.9244C160.809 41.4847 157.933 38.6053 157.803 33.6319C157.672 28.3967 160.678 25.2556 165.383 23.6851C165.383 21.7219 165.383 19.7587 165.383 17.9264C160.939 17.9264 156.496 17.9264 152.052 17.9264C152.052 28.2659 152.052 38.4744 152.052 48.683C156.496 48.683 160.939 48.683 165.383 48.683C165.514 48.4213 165.514 48.2904 165.514 48.1595C165.514 46.4581 165.514 44.7567 165.514 42.9244ZM167.344 27.3497C163.815 27.4806 161.462 29.8364 161.331 33.2393C161.201 36.3804 164.207 39.5215 167.213 39.5215C170.219 39.5215 173.225 36.3804 173.225 33.2393C173.225 29.8364 170.873 27.4806 167.344 27.3497Z" fill="#323E45"/>
<path d="M169.304 23.685C169.304 21.7218 169.304 19.8895 169.304 17.9263C173.748 17.9263 178.191 17.9263 182.766 17.9263C182.766 28.1349 182.766 38.3434 182.766 48.6829C178.322 48.6829 173.878 48.6829 169.435 48.6829C169.435 46.8506 169.435 44.8874 169.435 42.9242C174.401 41.3537 177.277 38.0817 177.015 32.7156C176.754 27.8731 173.748 25.2555 169.304 23.685Z" fill="#009EFD"/>
<path d="M165.514 42.9242C165.514 44.7565 165.514 46.458 165.514 48.1594C165.514 48.2903 165.383 48.4211 165.383 48.6829C160.939 48.6829 156.626 48.6829 152.052 48.6829C152.052 38.4743 152.052 28.2657 152.052 17.9263C156.495 17.9263 160.939 17.9263 165.383 17.9263C165.383 19.8895 165.383 21.7218 165.383 23.685C160.547 25.1246 157.541 28.3966 157.802 33.6318C157.802 38.6052 160.678 41.4845 165.514 42.9242Z" fill="#BDC1C3"/>
<path d="M167.344 27.3491C170.873 27.48 173.095 29.8358 173.225 33.2387C173.356 36.3798 170.35 39.5209 167.213 39.5209C164.207 39.5209 161.201 36.5107 161.332 33.2387C161.462 29.8358 163.815 27.48 167.344 27.3491Z" fill="#FAFAFA"/>
<path d="M50.7923 65H15.2077C7.38696 65 1 58.5869 1 50.7342V15.2658C1 7.41308 7.38696 1 15.2077 1H50.7923C58.613 1 65 7.41308 65 15.2658V50.7342C65 58.5869 58.613 65 50.7923 65Z" fill="white" stroke="#0179EF" stroke-width="2" stroke-miterlimit="10"/>
<path fill-rule="evenodd" clip-rule="evenodd" d="M16.5289 11.6851C16.1832 11.6851 15.8455 11.8074 15.5914 12.0344C15.3362 12.2625 15.1849 12.5799 15.1849 12.9194V53.0807C15.1849 53.4203 15.3362 53.7376 15.5914 53.9657C15.8455 54.1927 16.1832 54.3151 16.5289 54.3151H44.642C46.1966 54.3137 47.6932 53.7617 48.802 52.771C49.912 51.7792 50.5442 50.4261 50.5457 49.0065V16.9933C50.5442 15.5737 49.912 14.2209 48.802 13.2291C47.6932 12.2384 46.1963 11.6864 44.6417 11.6851H16.5289ZM17.8783 51.8463V14.1538H44.6417C45.5054 14.1538 46.3276 14.4606 46.9287 14.9977C47.5286 15.5337 47.8577 16.2526 47.8577 16.9936V49.0065C47.8577 49.7475 47.5286 50.4664 46.9287 51.0024C46.3276 51.5395 45.5054 51.8463 44.6417 51.8463H17.8783Z" fill="#0179EF"/>
<path d="M32.4902 40.3271C38.2956 40.3271 43.0188 35.6035 43.0188 29.7981C43.0188 23.9927 38.2956 19.269 32.4902 19.269C26.6847 19.269 21.9615 23.9927 21.9615 29.7981C21.9615 35.6035 26.6847 40.3271 32.4902 40.3271ZM32.4925 38.577C32.4923 38.577 32.4922 38.577 32.492 38.577C32.092 38.5144 31.3282 37.0621 30.8787 34.3876H34.1013C33.6522 37.0619 32.8892 38.5143 32.4925 38.577ZM40.8138 27.0275C41.4336 28.8844 41.4209 30.8273 40.7708 32.6857C40.4376 32.5897 40.9376 32.6648 36.0833 32.6376C36.2391 30.8701 36.2522 28.9875 36.0924 27.0843C40.8307 27.0576 40.4916 27.1382 40.8138 27.0275ZM40.0358 25.3343H35.8901C35.6625 23.801 35.3096 22.4073 34.8218 21.3432C37.0318 21.9537 38.8903 23.4053 40.0358 25.3343ZM35.8726 34.3876H39.9594C38.8084 36.2539 36.9835 37.6558 34.8218 38.253C35.2963 37.2177 35.6444 35.8718 35.8726 34.3876ZM32.4878 21.0191C32.488 21.0191 32.4881 21.0191 32.4883 21.0191C32.8943 21.0827 33.6765 22.5779 34.1229 25.3343H30.8569C31.3029 22.5781 32.0844 21.0828 32.4878 21.0191ZM30.6418 27.0843H34.3381C34.5036 28.943 34.4911 30.8976 34.3282 32.6376H30.6517C30.4867 30.8776 30.4781 28.9195 30.6418 27.0843ZM30.1583 21.3433C29.6705 22.4074 29.3175 23.8011 29.0897 25.3343H24.9445C26.09 23.4055 27.9484 21.9539 30.1583 21.3433ZM24.2095 32.6856C23.5577 30.8219 23.5483 28.8804 24.1665 27.0276C24.4874 27.1379 24.2058 27.058 28.8873 27.0843C28.729 28.9703 28.7395 30.8542 28.8965 32.6376C24.0524 32.6646 24.5437 32.5891 24.2095 32.6856ZM29.1073 34.3876C29.3355 35.8718 29.6836 37.2176 30.1583 38.2529C27.9967 37.6557 26.1718 36.2538 25.0209 34.3876H29.1073Z" fill="#0179EF"/>
<path d="M41.0522 44.3657H23.6376C22.4802 44.3657 22.4793 46.1157 23.6376 46.1157H41.0522C42.2096 46.1157 42.2105 44.3657 41.0522 44.3657Z" fill="#0179EF"/>
</svg>
